<?xml version="1.0" encoding="utf-8"?>
<!-- Generator: Adobe Illustrator 25.2.0, SVG Export Plug-In . SVG Version: 6.00 Build 0)  -->
<svg version="1.1" id="Layer_2" xmlns="http://www.w3.org/2000/svg" xmlns:xlink="http://www.w3.org/1999/xlink" x="0px" y="0px"
	 viewBox="0 0 260 155" style="enable-background:new 0 0 260 155;" xml:space="preserve">
<style type="text/css">
	.st0{fill:#008CE3;}
	.st1{fill:#232525;}
	.st2{fill:#2AC68E;}
	.st3{fill-rule:evenodd;clip-rule:evenodd;fill:#232525;}
	.st4{fill:#3DDDD8;}
	.st5{fill:#A07DDE;}
	.st6{fill:#F076AB;}
	.st7{fill:#F85858;}
	.st8{clip-path:url(#SVGID_2_);}
	.st9{clip-path:url(#SVGID_4_);}
	.st10{clip-path:url(#SVGID_6_);}
	.st11{clip-path:url(#SVGID_8_);}
	.st12{clip-path:url(#SVGID_10_);}
	.st13{clip-path:url(#SVGID_12_);}
	.st14{clip-path:url(#SVGID_14_);}
	.st15{clip-path:url(#SVGID_16_);}
</style>
<g>
	<g>
		<g>
			<path class="st0" d="M244.8,0.1h12c1.7,0,3,1.3,3,3v12c0,1.7-1.3,3-3,3h-12c-1.7,0-3-1.3-3-3v-12C241.8,1.4,243.1,0.1,244.8,0.1z
				"/>
			<path class="st1" d="M245.4,6.4c0-0.4,0.1-0.7,0.4-1c0.3-0.2,0.6-0.3,1-0.3h3.4l1.3,1.3h3.3c0.4,0,0.7,0.1,0.9,0.4
				c0.3,0.3,0.4,0.6,0.4,0.9v4c0,0.4-0.1,0.7-0.4,1c-0.2,0.3-0.5,0.4-0.9,0.4h-8c-0.4,0-0.7-0.1-0.9-0.4c-0.3-0.3-0.4-0.6-0.4-1
				L245.4,6.4L245.4,6.4z"/>
		</g>
	</g>
	<g>
		<path class="st2" d="M72.2,0.1h12c1.7,0,3,1.3,3,3v12c0,1.7-1.3,3-3,3h-12c-1.7,0-3-1.3-3-3v-12C69.2,1.4,70.6,0.1,72.2,0.1z"/>
		<path class="st3" d="M74.1,4.9c0-0.4,0.1-0.7,0.4-1s0.6-0.4,1-0.4h3.2c0.4,0,0.7,0.1,1,0.4L82,6.2c0.3,0.3,0.4,0.6,0.4,1v6
			c0,0.4-0.1,0.7-0.4,1c-0.3,0.3-0.6,0.4-1,0.4h-5.6c-0.4,0-0.7-0.1-1-0.4c-0.3-0.3-0.4-0.6-0.4-1V4.9z M75.5,9.1
			c0-0.2,0.1-0.4,0.2-0.5c0.1-0.1,0.3-0.2,0.5-0.2h4.2c0.2,0,0.4,0.1,0.5,0.2s0.2,0.3,0.2,0.5S81,9.4,80.8,9.5
			c-0.1,0.1-0.3,0.2-0.5,0.2h-4.2c-0.2,0-0.4-0.1-0.5-0.2C75.5,9.4,75.5,9.2,75.5,9.1z M76.2,11.2c-0.2,0-0.4,0.1-0.5,0.2
			c-0.1,0.1-0.2,0.3-0.2,0.5c0,0.2,0.1,0.4,0.2,0.5c0.1,0.1,0.3,0.2,0.5,0.2h4.2c0.2,0,0.4-0.1,0.5-0.2c0.1-0.1,0.2-0.3,0.2-0.5
			c0-0.2-0.1-0.4-0.2-0.5s-0.3-0.2-0.5-0.2H76.2z"/>
	</g>
	<g>
		<path class="st4" d="M175.8,0.1h12c1.7,0,3,1.3,3,3v12c0,1.7-1.3,3-3,3h-12c-1.7,0-3-1.3-3-3v-12C172.8,1.4,174.1,0.1,175.8,0.1z"
			/>
		<path class="st3" d="M176.2,8.7c0,0.6,0.3,1.3,0.7,1.7c0.5,0.5,1.1,0.7,1.7,0.7h2.4V13l-0.9-0.9c-0.1-0.1-0.3-0.2-0.5-0.2
			c-0.2,0-0.4,0.1-0.5,0.2c-0.1,0.1-0.2,0.3-0.2,0.5c0,0.2,0.1,0.4,0.2,0.5l2.1,2.1c0.1,0.1,0.3,0.2,0.5,0.2c0.2,0,0.4-0.1,0.5-0.2
			l2.1-2.1c0.1-0.1,0.2-0.3,0.2-0.5c0-0.2-0.1-0.4-0.2-0.5c-0.1-0.1-0.3-0.2-0.5-0.2c-0.2,0-0.4,0.1-0.5,0.2l-0.9,0.9v-1.8h1.8
			c0.4,0,0.9-0.1,1.3-0.3c0.4-0.2,0.8-0.4,1-0.7c0.3-0.3,0.5-0.7,0.7-1.1c0.1-0.4,0.2-0.8,0.2-1.3c0-0.4-0.1-0.9-0.3-1.2
			c-0.2-0.4-0.5-0.7-0.8-1c-0.3-0.3-0.7-0.5-1.1-0.6c-0.4-0.1-0.9-0.1-1.3-0.1c-0.1-0.4-0.2-0.7-0.5-1c-0.2-0.3-0.5-0.6-0.8-0.8
			c-0.3-0.2-0.7-0.3-1-0.4c-0.4-0.1-0.7,0-1.1,0.1c-0.4,0.1-0.7,0.3-1,0.5s-0.5,0.5-0.7,0.8c-0.2,0.3-0.3,0.7-0.4,1.1
			c0,0.4,0,0.7,0.1,1.1c-0.6,0.1-1.2,0.3-1.6,0.8C176.4,7.5,176.1,8.1,176.2,8.7L176.2,8.7z M182.4,11.2h-1.4V7.7
			c0-0.2,0.1-0.4,0.2-0.5c0.1-0.1,0.3-0.2,0.5-0.2c0.2,0,0.4,0.1,0.5,0.2c0.1,0.1,0.2,0.3,0.2,0.5V11.2z"/>
	</g>
	<g>
		<path class="st5" d="M141.2,0.1h12c1.7,0,3,1.3,3,3v12c0,1.7-1.3,3-3,3h-12c-1.7,0-3-1.3-3-3v-12C138.2,1.4,139.6,0.1,141.2,0.1z"
			/>
		<path class="st1" d="M152.9,4.2c0-0.1,0-0.2-0.1-0.3c0-0.1-0.1-0.2-0.2-0.2c-0.1-0.1-0.2-0.1-0.3-0.1c-0.1,0-0.2,0-0.3,0l-7,1.4
			c-0.2,0-0.3,0.1-0.4,0.2c-0.1,0.1-0.2,0.3-0.2,0.4v6.4c-0.2-0.1-0.5-0.1-0.7-0.1c-1.2,0-2.1,0.6-2.1,1.4c0,0.8,0.9,1.4,2.1,1.4
			c1.2,0,2.1-0.6,2.1-1.4V7.5l5.6-1.1v4.1c-0.2-0.1-0.5-0.1-0.7-0.1c-1.2,0-2.1,0.6-2.1,1.4c0,0.8,0.9,1.4,2.1,1.4s2.1-0.6,2.1-1.4
			V4.2z"/>
	</g>
	<g>
		<path class="st6" d="M106.8,0.1h12c1.7,0,3,1.3,3,3v12c0,1.7-1.3,3-3,3h-12c-1.7,0-3-1.3-3-3v-12C103.8,1.4,105.1,0.1,106.8,0.1z"
			/>
		<path class="st3" d="M108.6,4.2c-0.4,0-0.7,0.1-1,0.4c-0.3,0.3-0.4,0.6-0.4,1v7c0,0.4,0.1,0.7,0.4,1c0.3,0.3,0.6,0.4,1,0.4h8.4
			c0.4,0,0.7-0.1,1-0.4c0.3-0.3,0.4-0.6,0.4-1v-7c0-0.4-0.1-0.7-0.4-1c-0.3-0.3-0.6-0.4-1-0.4H108.6z M117,12.6h-8.4l2.8-5.6
			l2.1,4.2l1.4-2.8L117,12.6z"/>
	</g>
	<g>
		<path class="st7" d="M210.2,0.1h12c1.7,0,3,1.3,3,3v12c0,1.7-1.3,3-3,3h-12c-1.7,0-3-1.3-3-3v-12C207.2,1.4,208.6,0.1,210.2,0.1z"
			/>
		<path class="st1" d="M210.6,6.2c0-0.4,0.1-0.7,0.4-1c0.3-0.3,0.6-0.4,1-0.4h4.2c0.4,0,0.7,0.1,1,0.4c0.3,0.3,0.4,0.6,0.4,1v5.6
			c0,0.4-0.1,0.7-0.4,1c-0.3,0.3-0.6,0.4-1,0.4H212c-0.4,0-0.7-0.1-1-0.4c-0.3-0.3-0.4-0.6-0.4-1V6.2z M219.4,7
			c-0.1,0.1-0.2,0.1-0.3,0.3c-0.1,0.1-0.1,0.2-0.1,0.4v2.8c0,0.1,0,0.3,0.1,0.4c0.1,0.1,0.2,0.2,0.3,0.3l1.4,0.7
			c0.1,0.1,0.2,0.1,0.3,0.1c0.1,0,0.2,0,0.3-0.1c0.1-0.1,0.2-0.2,0.2-0.3c0.1-0.1,0.1-0.2,0.1-0.3V6.9c0-0.1,0-0.2-0.1-0.3
			s-0.1-0.2-0.2-0.3c-0.1-0.1-0.2-0.1-0.3-0.1c-0.1,0-0.2,0-0.3,0.1L219.4,7z"/>
	</g>
	<g>
		<g>
			<path class="st0" d="M4.2,0h10.3c2.1,0,3.8,1.7,3.8,3.9v10.3c0,2.2-1.7,3.9-3.9,3.9H4.2c-2.2-0.1-3.9-1.8-3.9-4V3.9
				C0.2,1.7,1.9,0,4.2,0z"/>
			<path class="st1" d="M3.3,2.3h1.5c0.4,0,0.7,0.3,0.7,0.7v1.5c0,0.4-0.3,0.6-0.6,0.6H3.3c-0.4,0-0.6-0.3-0.6-0.6V3
				C2.7,2.6,2.9,2.3,3.3,2.3z"/>
			<path class="st1" d="M0.2,11.4v2.7h18v-2.7C18.2,11.4,0.2,11.4,0.2,11.4z M15,13.5h-1.4v-1.4H15V13.5z M17.6,13.5h-1.4v-1.4h1.4
				V13.5z"/>
			<path class="st1" d="M3.3,6.3h1.5c0.4,0,0.6,0.3,0.6,0.6v1.5C5.4,8.8,5.1,9,4.8,9H3.3C2.9,9,2.8,8.7,2.8,8.4V6.9
				C2.7,6.6,2.9,6.3,3.3,6.3z"/>
		</g>
	</g>
	<g>
		<path class="st6" d="M37.8,0.1h12c1.7,0,3,1.3,3,3v12c0,1.7-1.3,3-3,3h-12c-1.7,0-3-1.3-3-3v-12C34.8,1.4,36.1,0.1,37.8,0.1z"/>
		<path class="st1" d="M44.2,3.7c-0.1-0.1-0.3-0.2-0.5-0.2s-0.4,0.1-0.5,0.2l-4.9,4.9c-0.1,0.1-0.2,0.3-0.2,0.5
			c0,0.2,0.1,0.4,0.2,0.5c0.1,0.1,0.3,0.2,0.5,0.2c0.2,0,0.4-0.1,0.5-0.2l0.2-0.2v4.6c0,0.2,0.1,0.4,0.2,0.5
			c0.1,0.1,0.3,0.2,0.5,0.2h1.4c0.2,0,0.4-0.1,0.5-0.2s0.2-0.3,0.2-0.5v-1.4c0-0.2,0.1-0.4,0.2-0.5c0.1-0.1,0.3-0.2,0.5-0.2h1.4
			c0.2,0,0.4,0.1,0.5,0.2c0.1,0.1,0.2,0.3,0.2,0.5v1.4c0,0.2,0.1,0.4,0.2,0.5c0.1,0.1,0.3,0.2,0.5,0.2h1.4c0.2,0,0.4-0.1,0.5-0.2
			c0.1-0.1,0.2-0.3,0.2-0.5V9.3l0.2,0.2c0.1,0.1,0.3,0.2,0.5,0.2c0.2,0,0.4-0.1,0.5-0.2c0.1-0.1,0.2-0.3,0.2-0.5
			c0-0.2-0.1-0.4-0.2-0.5L44.2,3.7L44.2,3.7z"/>
	</g>
</g>
<g>
	<g>
		<path class="st1" d="M216,105h38c3.3,0,6,2.7,6,6v38c0,3.3-2.7,6-6,6h-38c-3.3,0-6-2.7-6-6v-38C210,107.7,212.7,105,216,105z"/>
		<g>
			<defs>
				<path id="SVGID_1_" d="M236,105h18c3.3,0,6,2.7,6,6v18h-16c-4.4,0-8-3.6-8-8V105z"/>
			</defs>
			<clipPath id="SVGID_2_">
				<use xlink:href="#SVGID_1_"  style="overflow:visible;"/>
			</clipPath>
			<g class="st8">
				<path class="st0" d="M236,105h18c3.3,0,6,2.7,6,6v18h-16c-4.4,0-8-3.6-8-8V105z"/>
				<g>
					<circle class="st0" cx="260.5" cy="128.5" r="7.5"/>
				</g>
				<path class="st1" d="M241.6,113.8c0-0.4,0.2-0.8,0.5-1.1c0.3-0.3,0.7-0.5,1.1-0.5h4l1.6,1.6h4c0.4,0,0.8,0.2,1.1,0.5
					c0.3,0.3,0.5,0.7,0.5,1.1v4.8c0,0.4-0.2,0.8-0.5,1.1c-0.3,0.3-0.7,0.5-1.1,0.5h-9.6c-0.4,0-0.8-0.2-1.1-0.5
					c-0.3-0.3-0.5-0.7-0.5-1.1V113.8z"/>
			</g>
		</g>
	</g>
	<g>
		<path class="st1" d="M146,35h38c3.3,0,6,2.7,6,6v38c0,3.3-2.7,6-6,6h-38c-3.3,0-6-2.7-6-6V41C140,37.7,142.7,35,146,35z"/>
		<g>
			<defs>
				<path id="SVGID_3_" d="M166,35h18c3.3,0,6,2.7,6,6v18h-16c-4.4,0-8-3.6-8-8V35z"/>
			</defs>
			<clipPath id="SVGID_4_">
				<use xlink:href="#SVGID_3_"  style="overflow:visible;"/>
			</clipPath>
			<g class="st9">
				<path class="st2" d="M166,35h18c3.3,0,6,2.7,6,6v18h-16c-4.4,0-8-3.6-8-8V35z"/>
				<g>
					<circle class="st2" cx="190.5" cy="58.5" r="7.5"/>
				</g>
				<path class="st3" d="M173.2,42.2c0-0.4,0.2-0.8,0.5-1.1c0.3-0.3,0.7-0.5,1.1-0.5h3.7c0.4,0,0.8,0.2,1.1,0.5l2.7,2.7
					c0.3,0.3,0.5,0.7,0.5,1.1v6.9c0,0.4-0.2,0.8-0.5,1.1c-0.3,0.3-0.7,0.5-1.1,0.5h-6.4c-0.4,0-0.8-0.2-1.1-0.5
					c-0.3-0.3-0.5-0.7-0.5-1.1V42.2z M174.8,47c0-0.2,0.1-0.4,0.2-0.6c0.1-0.1,0.4-0.2,0.6-0.2h4.8c0.2,0,0.4,0.1,0.6,0.2
					c0.2,0.2,0.2,0.4,0.2,0.6s-0.1,0.4-0.2,0.6c-0.2,0.2-0.4,0.2-0.6,0.2h-4.8c-0.2,0-0.4-0.1-0.6-0.2
					C174.9,47.4,174.8,47.2,174.8,47z M175.6,49.4c-0.2,0-0.4,0.1-0.6,0.2c-0.2,0.2-0.2,0.4-0.2,0.6s0.1,0.4,0.2,0.6
					c0.1,0.2,0.4,0.2,0.6,0.2h4.8c0.2,0,0.4-0.1,0.6-0.2c0.2-0.2,0.2-0.4,0.2-0.6s-0.1-0.4-0.2-0.6c-0.2-0.1-0.4-0.2-0.6-0.2H175.6z
					"/>
			</g>
		</g>
	</g>
	<g>
		<path class="st1" d="M76,105h38c3.3,0,6,2.7,6,6v38c0,3.3-2.7,6-6,6H76c-3.3,0-6-2.7-6-6v-38C70,107.7,72.7,105,76,105z"/>
		<g>
			<defs>
				<path id="SVGID_5_" d="M96,105h18c3.3,0,6,2.7,6,6v18h-16c-4.4,0-8-3.6-8-8V105z"/>
			</defs>
			<clipPath id="SVGID_6_">
				<use xlink:href="#SVGID_5_"  style="overflow:visible;"/>
			</clipPath>
			<g class="st10">
				<path class="st4" d="M96,105h18c3.3,0,6,2.7,6,6v18h-16c-4.4,0-8-3.6-8-8V105z"/>
				<g>
					<circle class="st4" cx="120.5" cy="128.5" r="7.5"/>
				</g>
				<path class="st3" d="M101.6,116.6c0,0.7,0.3,1.5,0.8,2s1.2,0.8,2,0.8h2.8v2.1l-1-1c-0.2-0.1-0.4-0.2-0.6-0.2
					c-0.2,0-0.4,0.1-0.6,0.2c-0.1,0.1-0.2,0.3-0.2,0.6c0,0.2,0.1,0.4,0.2,0.6l2.4,2.4c0.1,0.2,0.4,0.2,0.6,0.2
					c0.2,0,0.4-0.1,0.6-0.2l2.4-2.4c0.1-0.2,0.2-0.4,0.2-0.6c0-0.2-0.1-0.4-0.2-0.6c-0.1-0.1-0.3-0.2-0.6-0.2
					c-0.2,0-0.4,0.1-0.6,0.2l-1,1v-2.1h2c0.5,0,1-0.1,1.4-0.3c0.5-0.2,0.9-0.5,1.2-0.8c0.3-0.4,0.6-0.8,0.8-1.3
					c0.2-0.5,0.2-1,0.2-1.5c0-0.5-0.2-1-0.4-1.4c-0.2-0.4-0.5-0.8-0.9-1.1c-0.4-0.3-0.8-0.5-1.3-0.7c-0.5-0.1-1-0.2-1.5-0.1
					c-0.1-0.4-0.3-0.8-0.5-1.2c-0.2-0.3-0.6-0.6-0.9-0.9c-0.4-0.2-0.8-0.4-1.2-0.4c-0.4-0.1-0.9,0-1.3,0.1c-0.4,0.1-0.8,0.3-1.1,0.6
					c-0.3,0.3-0.6,0.6-0.8,1c-0.2,0.4-0.4,0.8-0.4,1.2s0,0.9,0.1,1.3c-0.7,0.1-1.3,0.4-1.8,0.9S101.6,115.9,101.6,116.6L101.6,116.6
					z M108.8,119.4h-1.6v-4c0-0.2,0.1-0.4,0.2-0.6c0.2-0.2,0.4-0.2,0.6-0.2c0.2,0,0.4,0.1,0.6,0.2c0.1,0.2,0.2,0.4,0.2,0.6V119.4z"
					/>
			</g>
		</g>
	</g>
	<g>
		<path class="st1" d="M6,105h38c3.3,0,6,2.7,6,6v38c0,3.3-2.7,6-6,6H6c-3.3,0-6-2.7-6-6v-38C0,107.7,2.7,105,6,105z"/>
		<g>
			<defs>
				<path id="SVGID_7_" d="M26,105h18c3.3,0,6,2.7,6,6v18H34c-4.4,0-8-3.6-8-8V105z"/>
			</defs>
			<clipPath id="SVGID_8_">
				<use xlink:href="#SVGID_7_"  style="overflow:visible;"/>
			</clipPath>
			<g class="st11">
				<path class="st5" d="M26,105h18c3.3,0,6,2.7,6,6v18H34c-4.4,0-8-3.6-8-8V105z"/>
				<g>
					<circle class="st5" cx="50.5" cy="128.5" r="7.5"/>
				</g>
				<path class="st1" d="M44.4,111.4c0-0.1,0-0.2-0.1-0.3c-0.1-0.1-0.1-0.2-0.2-0.3c-0.1-0.1-0.2-0.1-0.3-0.2c-0.1,0-0.2,0-0.4,0
					l-8,1.6c-0.2,0-0.3,0.1-0.5,0.3c-0.1,0.1-0.2,0.3-0.2,0.5v7.3c-0.3-0.1-0.5-0.1-0.8-0.1c-1.3,0-2.4,0.7-2.4,1.6s1.1,1.6,2.4,1.6
					s2.4-0.7,2.4-1.6v-6.5l6.4-1.3v4.7c-0.3-0.1-0.5-0.1-0.8-0.1c-1.3,0-2.4,0.7-2.4,1.6c0,0.9,1.1,1.6,2.4,1.6s2.4-0.7,2.4-1.6
					V111.4z"/>
			</g>
		</g>
	</g>
	<g>
		<g>
			<path class="st1" d="M6,35h38c3.3,0,6,2.7,6,6v38c0,3.3-2.7,6-6,6H6c-3.3,0-6-2.7-6-6V41C0,37.7,2.7,35,6,35z"/>
			<g>
				<g>
					<defs>
						<path id="SVGID_9_" d="M26,35h18c3.3,0,6,2.7,6,6v18H34c-4.4,0-8-3.6-8-8V35z"/>
					</defs>
					<clipPath id="SVGID_10_">
						<use xlink:href="#SVGID_9_"  style="overflow:visible;"/>
					</clipPath>
					<g class="st12">
						<path class="st0" d="M26,35h18c3.3,0,6,2.7,6,6v18H34c-4.4,0-8-3.6-8-8V35z"/>
						<g>
							<circle class="st0" cx="50.5" cy="58.5" r="7.5"/>
						</g>
						<path class="st1" d="M28.7,37.6h2.2c0.5,0,0.9,0.4,0.9,0.9v2.2c0,0.5-0.4,0.9-0.9,0.9h-2.2c-0.5,0-0.9-0.4-0.9-0.9v-2.2
							C27.8,37.9,28.2,37.6,28.7,37.6z"/>
						<path class="st1" d="M24.3,50.6v3.8H50v-3.8H24.3z M45.4,53.5h-2v-2h2V53.5z M49.1,53.5h-2v-2h2V53.5z"/>
						<path class="st1" d="M28.7,43.3h2.2c0.5,0,0.9,0.4,0.9,0.9v2.2c0,0.5-0.4,0.9-0.9,0.9h-2.2c-0.5,0-0.9-0.4-0.9-0.9v-2.2
							C27.8,43.6,28.2,43.3,28.7,43.3z"/>
					</g>
				</g>
			</g>
		</g>
	</g>
	<g>
		<path class="st1" d="M216,35h38c3.3,0,6,2.7,6,6v38c0,3.3-2.7,6-6,6h-38c-3.3,0-6-2.7-6-6V41C210,37.7,212.7,35,216,35z"/>
		<g>
			<defs>
				<path id="SVGID_11_" d="M236,35h18c3.3,0,6,2.7,6,6v18h-16c-4.4,0-8-3.6-8-8V35z"/>
			</defs>
			<clipPath id="SVGID_12_">
				<use xlink:href="#SVGID_11_"  style="overflow:visible;"/>
			</clipPath>
			<g class="st13">
				<path class="st6" d="M236,35h18c3.3,0,6,2.7,6,6v18h-16c-4.4,0-8-3.6-8-8V35z"/>
				<g>
					<circle class="st6" cx="260.5" cy="58.5" r="7.5"/>
				</g>
				<path class="st3" d="M243.2,41.4c-0.4,0-0.8,0.2-1.1,0.5c-0.3,0.3-0.5,0.7-0.5,1.1v8c0,0.4,0.2,0.8,0.5,1.1
					c0.3,0.3,0.7,0.5,1.1,0.5h9.6c0.4,0,0.8-0.2,1.1-0.5c0.3-0.3,0.5-0.7,0.5-1.1v-8c0-0.4-0.2-0.8-0.5-1.1
					c-0.3-0.3-0.7-0.5-1.1-0.5H243.2z M252.8,51h-9.6l3.2-6.4l2.4,4.8l1.6-3.2L252.8,51z"/>
			</g>
		</g>
	</g>
	<g>
		<path class="st1" d="M146,105h38c3.3,0,6,2.7,6,6v38c0,3.3-2.7,6-6,6h-38c-3.3,0-6-2.7-6-6v-38C140,107.7,142.7,105,146,105z"/>
		<g>
			<defs>
				<path id="SVGID_13_" d="M166,105h18c3.3,0,6,2.7,6,6v18h-16c-4.4,0-8-3.6-8-8V105z"/>
			</defs>
			<clipPath id="SVGID_14_">
				<use xlink:href="#SVGID_13_"  style="overflow:visible;"/>
			</clipPath>
			<g class="st14">
				<path class="st7" d="M166,105h18c3.3,0,6,2.7,6,6v18h-16c-4.4,0-8-3.6-8-8V105z"/>
				<g>
					<circle class="st7" cx="190.5" cy="128.5" r="7.5"/>
				</g>
				<path class="st1" d="M171.6,113.8c0-0.4,0.2-0.8,0.5-1.1c0.3-0.3,0.7-0.5,1.1-0.5h4.8c0.4,0,0.8,0.2,1.1,0.5
					c0.3,0.3,0.5,0.7,0.5,1.1v6.4c0,0.4-0.2,0.8-0.5,1.1c-0.3,0.3-0.7,0.5-1.1,0.5h-4.8c-0.4,0-0.8-0.2-1.1-0.5
					c-0.3-0.3-0.5-0.7-0.5-1.1V113.8z M181.6,114.7c-0.1,0.1-0.2,0.2-0.3,0.3c-0.1,0.1-0.1,0.3-0.1,0.4v3.2c0,0.1,0,0.3,0.1,0.4
					c0.1,0.1,0.2,0.2,0.3,0.3l1.6,0.8c0.1,0.1,0.3,0.1,0.4,0.1c0.1,0,0.3,0,0.4-0.1c0.1-0.1,0.2-0.2,0.3-0.3
					c0.1-0.1,0.1-0.3,0.1-0.4v-4.8c0-0.1,0-0.3-0.1-0.4c-0.1-0.1-0.2-0.2-0.3-0.3c-0.1-0.1-0.2-0.1-0.4-0.1c-0.1,0-0.3,0-0.4,0.1
					L181.6,114.7z"/>
			</g>
		</g>
	</g>
	<g>
		<path class="st1" d="M76,35h38c3.3,0,6,2.7,6,6v38c0,3.3-2.7,6-6,6H76c-3.3,0-6-2.7-6-6V41C70,37.7,72.7,35,76,35z"/>
		<g>
			<defs>
				<path id="SVGID_15_" d="M96,35h18c3.3,0,6,2.7,6,6v18h-16c-4.4,0-8-3.6-8-8V35z"/>
			</defs>
			<clipPath id="SVGID_16_">
				<use xlink:href="#SVGID_15_"  style="overflow:visible;"/>
			</clipPath>
			<g class="st15">
				<path class="st6" d="M96,35h18c3.3,0,6,2.7,6,6v18h-16c-4.4,0-8-3.6-8-8V35z"/>
				<g>
					<circle class="st6" cx="120.5" cy="58.5" r="7.5"/>
				</g>
				<path class="st1" d="M108.6,40.8c-0.1-0.1-0.4-0.2-0.6-0.2s-0.4,0.1-0.6,0.2l-5.6,5.6c-0.1,0.2-0.2,0.4-0.2,0.6
					c0,0.2,0.1,0.4,0.2,0.6c0.1,0.1,0.3,0.2,0.6,0.2c0.2,0,0.4-0.1,0.6-0.2l0.2-0.2v5.3c0,0.2,0.1,0.4,0.2,0.6
					c0.2,0.1,0.4,0.2,0.6,0.2h1.6c0.2,0,0.4-0.1,0.6-0.2c0.2-0.2,0.2-0.4,0.2-0.6V51c0-0.2,0.1-0.4,0.2-0.6c0.2-0.1,0.4-0.2,0.6-0.2
					h1.6c0.2,0,0.4,0.1,0.6,0.2c0.2,0.2,0.2,0.4,0.2,0.6v1.6c0,0.2,0.1,0.4,0.2,0.6c0.1,0.1,0.4,0.2,0.6,0.2h1.6
					c0.2,0,0.4-0.1,0.6-0.2c0.1-0.2,0.2-0.4,0.2-0.6v-5.3l0.2,0.2c0.2,0.1,0.4,0.2,0.6,0.2c0.2,0,0.4-0.1,0.6-0.2
					c0.1-0.1,0.2-0.3,0.2-0.6c0-0.2-0.1-0.4-0.2-0.6L108.6,40.8L108.6,40.8z"/>
			</g>
		</g>
	</g>
</g>
</svg>
