<?xml version="1.0" encoding="utf-8"?>
<!-- Generator: Adobe Illustrator 25.2.0, SVG Export Plug-In . SVG Version: 6.00 Build 0)  -->
<svg version="1.1" id="Layer_1" xmlns="http://www.w3.org/2000/svg" xmlns:xlink="http://www.w3.org/1999/xlink" x="0px" y="0px"
	 viewBox="0 0 453.6 368" style="enable-background:new 0 0 453.6 368;" xml:space="preserve">
<style type="text/css">
	.st0{opacity:0.2;enable-background:new    ;}
	.st1{fill:#008CE3;}
	.st2{fill:#101313;}
	.st3{opacity:0.1;fill:#D7D7D7;enable-background:new    ;}
	.st4{fill:#006FB3;}
	.st5{fill:#D7D7D7;}
	.st6{fill:#3DDDD8;}
	.st7{fill:#21C2BD;}
	.st8{fill:#2AC68E;}
	.st9{fill:#229B6F;}
	.st10{fill:#F076AB;}
	.st11{fill:#EC468D;}
	.st12{fill:#A07DDE;}
	.st13{fill:#8155D4;}
	.st14{fill:#F85858;}
	.st15{fill:#F83C3C;}
</style>
<g>
	<g>
		<g>
			<path class="st0" d="M2.8,190h50.4c1.5,0,2.8,1.3,2.8,2.8v46.4c0,1.5-1.3,2.8-2.8,2.8H2.8c-1.5,0-2.8-1.3-2.8-2.8v-46.4
				C0,191.3,1.3,190,2.8,190z"/>
			<path class="st1" d="M0,196v42.2c0,1.5,1.3,2.8,2.8,2.8h50.4c1.5,0,2.8-1.3,2.8-2.8V196l-1-1H1L0,196z"/>
			<path class="st2" d="M0,191.8v4.2h56v-4.2c0-1.5-1.3-2.8-2.8-2.8H2.8C1.3,189,0,190.3,0,191.8z"/>
			<path class="st2" d="M14,236.8v4.2h26v-4.2c0-1.5-1.3-2.8-2.8-2.8H16.8C15.3,234,14,235.3,14,236.8z"/>
			<path class="st3" d="M0,191.8v1c0-1.6,1.2-2.8,2.8-2.8h50.4c1.5,0,2.8,1.2,2.8,2.8v-1c0-1.5-1.3-2.8-2.8-2.8H2.8
				C1.3,189,0,190.3,0,191.8z"/>
		</g>
		<g>
			<path class="st0" d="M134.8,205h50.4c1.5,0,2.8,1.3,2.8,2.8v30.4c0,1.5-1.3,2.8-2.8,2.8h-50.4c-1.5,0-2.8-1.3-2.8-2.8v-30.4
				C132,206.3,133.3,205,134.8,205z"/>
			<path class="st4" d="M132,229.2c0,1.6,1.2,2.8,2.8,2.8h50.4c1.5,0,2.8-1.3,2.8-2.8v-30.4c0-1.5-1.3-2.8-2.8-2.8H160
				c-4.2,0-5.6-6-9.8-6h-15.4c-1.6,0-2.8,1.2-2.8,2.8"/>
			<path class="st0" d="M134.8,203h50.4c1.5,0,2.8,1.3,2.8,2.8v30.4c0,1.5-1.3,2.8-2.8,2.8h-50.4c-1.5,0-2.8-1.3-2.8-2.8v-30.4
				C132,204.3,133.3,203,134.8,203z"/>
			<path class="st5" d="M138.8,199h42.4c1.5,0,2.8,1.3,2.8,2.8v16.4c0,1.5-1.3,2.8-2.8,2.8h-42.4c-1.5,0-2.8-1.3-2.8-2.8v-16.4
				C136,200.3,137.3,199,138.8,199z"/>
			<path class="st1" d="M134.8,204h50.4c1.5,0,2.8,1.3,2.8,2.8v30.4c0,1.5-1.3,2.8-2.8,2.8h-50.4c-1.5,0-2.8-1.3-2.8-2.8v-30.4
				C132,205.3,133.3,204,134.8,204z"/>
			<path class="st3" d="M134.8,190c-1.5,0-2.8,1.3-2.8,2.8v1c0-1.6,1.2-2.8,2.8-2.8h15.4c4.2,0,5.6,6,9.8,6h25.2
				c1.6,0,2.8,1.2,2.8,2.8v-1c0-1.5-1.3-2.8-2.8-2.8H160c-4.2,0-5.6-6-9.8-6H134.8z"/>
			<path class="st2" d="M152,213.5v17c0,0.8,0.7,1.5,1.5,1.5h13c0.8,0,1.5-0.7,1.5-1.5V217l-5-5h-9.5C152.7,212,152,212.7,152,213.5
				z"/>
		</g>
		<g>
			<path class="st0" d="M399.4,205h50.4c1.5,0,2.8,1.3,2.8,2.8v30.4c0,1.5-1.3,2.8-2.8,2.8h-50.4c-1.5,0-2.8-1.3-2.8-2.8v-30.4
				C396.6,206.3,397.9,205,399.4,205z"/>
			<path class="st4" d="M396.4,229.2c0,1.6,1.2,2.8,2.8,2.8h50.6c1.5,0,2.8-1.3,2.8-2.8v-30.4c0-1.5-1.3-2.8-2.8-2.8h-25.2
				c-4.2,0-5.6-6-9.8-6h-15.6c-1.6,0-2.8,1.2-2.8,2.8"/>
			<path class="st0" d="M399.4,203h50.4c1.5,0,2.8,1.3,2.8,2.8v30.4c0,1.5-1.3,2.8-2.8,2.8h-50.4c-1.5,0-2.8-1.3-2.8-2.8v-30.4
				C396.6,204.3,397.9,203,399.4,203z"/>
			<path class="st5" d="M403.4,199h42.4c1.5,0,2.8,1.3,2.8,2.8v16.4c0,1.5-1.3,2.8-2.8,2.8h-42.4c-1.5,0-2.8-1.3-2.8-2.8v-16.4
				C400.6,200.3,401.9,199,403.4,199z"/>
			<path class="st1" d="M399.4,204h50.4c1.5,0,2.8,1.3,2.8,2.8v30.4c0,1.5-1.3,2.8-2.8,2.8h-50.4c-1.5,0-2.8-1.3-2.8-2.8v-30.4
				C396.6,205.3,397.9,204,399.4,204z"/>
			<path class="st3" d="M399.4,190c-1.5,0-2.8,1.3-2.8,2.8v1c0-1.6,1.2-2.8,2.8-2.8h15.4c4.2,0,5.6,6,9.8,6h25.2
				c1.6,0,2.8,1.2,2.8,2.8v-1c0-1.5-1.3-2.8-2.8-2.8h-25.2c-4.2,0-5.6-6-9.8-6H399.4z"/>
			<path class="st2" d="M422.6,212v8h-4l6,8l6-8h-4v-8H422.6z M416.6,228v4h16v-4H416.6z"/>
		</g>
		<g>
			<path class="st0" d="M333.2,205h50.4c1.5,0,2.8,1.3,2.8,2.8v30.4c0,1.5-1.3,2.8-2.8,2.8h-50.4c-1.5,0-2.8-1.3-2.8-2.8v-30.4
				C330.4,206.3,331.7,205,333.2,205z"/>
			<path class="st4" d="M330.4,229.2c0,1.6,1.2,2.8,2.8,2.8h50.4c1.5,0,2.8-1.3,2.8-2.8v-30.4c0-1.5-1.3-2.8-2.8-2.8h-25.2
				c-4.2,0-5.6-6-9.8-6h-15.4c-1.6,0-2.8,1.2-2.8,2.8"/>
			<path class="st0" d="M333.2,203h50.4c1.5,0,2.8,1.3,2.8,2.8v30.4c0,1.5-1.3,2.8-2.8,2.8h-50.4c-1.5,0-2.8-1.3-2.8-2.8v-30.4
				C330.4,204.3,331.7,203,333.2,203z"/>
			<path class="st5" d="M337.2,199h42.4c1.5,0,2.8,1.3,2.8,2.8v16.4c0,1.5-1.3,2.8-2.8,2.8h-42.4c-1.5,0-2.8-1.3-2.8-2.8v-16.4
				C334.4,200.3,335.7,199,337.2,199z"/>
			<path class="st1" d="M333.2,204h50.4c1.5,0,2.8,1.3,2.8,2.8v30.4c0,1.5-1.3,2.8-2.8,2.8h-50.4c-1.5,0-2.8-1.3-2.8-2.8v-30.4
				C330.4,205.3,331.7,204,333.2,204z"/>
			<path class="st3" d="M333.2,190c-1.5,0-2.8,1.3-2.8,2.8v1c0-1.6,1.2-2.8,2.8-2.8h15.4c4.2,0,5.6,6,9.8,6h25.2
				c1.6,0,2.8,1.2,2.8,2.8v-1c0-1.5-1.3-2.8-2.8-2.8h-25.2c-4.2,0-5.6-6-9.8-6H333.2z"/>
			<path class="st2" d="M355.4,223.3c-0.6-0.4-1.3-0.5-2-0.5c-2.5,0-4.5,2.3-3.9,4.9c0.3,1.4,1.5,2.6,2.9,2.9
				c2.6,0.6,4.9-1.4,4.9-3.9V217h8v6.5c-0.6-0.4-1.3-0.5-2-0.5c-2.5,0-4.5,2.3-3.9,4.9c0.3,1.4,1.5,2.6,2.9,2.9
				c2.6,0.6,4.9-1.4,4.9-3.9v-14h-12"/>
		</g>
		<g>
			<path class="st0" d="M201,205h50.4c1.5,0,2.8,1.3,2.8,2.8v30.4c0,1.5-1.3,2.8-2.8,2.8H201c-1.5,0-2.8-1.3-2.8-2.8v-30.4
				C198.2,206.3,199.5,205,201,205z"/>
			<path class="st4" d="M198,229.2c0,1.6,1.2,2.8,2.8,2.8h50.6c1.5,0,2.8-1.3,2.8-2.8v-30.4c0-1.5-1.3-2.8-2.8-2.8h-25.2
				c-4.2,0-5.6-6-9.8-6h-15.6c-1.6,0-2.8,1.2-2.8,2.8"/>
			<path class="st0" d="M201,203h50.4c1.5,0,2.8,1.3,2.8,2.8v30.4c0,1.5-1.3,2.8-2.8,2.8H201c-1.5,0-2.8-1.3-2.8-2.8v-30.4
				C198.2,204.3,199.5,203,201,203z"/>
			<path class="st5" d="M205,199h42.4c1.5,0,2.8,1.3,2.8,2.8v16.4c0,1.5-1.3,2.8-2.8,2.8H205c-1.5,0-2.8-1.3-2.8-2.8v-16.4
				C202.2,200.3,203.5,199,205,199z"/>
			<path class="st1" d="M201,204h50.4c1.5,0,2.8,1.3,2.8,2.8v30.4c0,1.5-1.3,2.8-2.8,2.8H201c-1.5,0-2.8-1.3-2.8-2.8v-30.4
				C198.2,205.3,199.5,204,201,204z"/>
			<path class="st3" d="M201,190c-1.5,0-2.8,1.3-2.8,2.8v1c0-1.6,1.2-2.8,2.8-2.8h15.4c4.2,0,5.6,6,9.8,6h25.2
				c1.6,0,2.8,1.2,2.8,2.8v-1c0-1.5-1.3-2.8-2.8-2.8h-25.2c-4.2,0-5.6-6-9.8-6H201z"/>
			<path class="st2" d="M216.2,215.4v13.2c0,0.8,0.6,1.4,1.4,1.4h17.2c0.8,0,1.4-0.6,1.4-1.4v-13.2c0-0.8-0.6-1.4-1.4-1.4h-17.2
				C216.9,214,216.2,214.6,216.2,215.4z M222.2,220l6,6l3-4l3,4v2h-16v-4L222.2,220z"/>
		</g>
		<g>
			<path class="st0" d="M68.8,205h50.4c1.5,0,2.8,1.3,2.8,2.8v30.4c0,1.5-1.3,2.8-2.8,2.8H68.8c-1.5,0-2.8-1.3-2.8-2.8v-30.4
				C66,206.3,67.3,205,68.8,205z"/>
			<path class="st4" d="M66,229.2c0,1.6,1.2,2.8,2.8,2.8h50.4c1.5,0,2.8-1.3,2.8-2.8v-30.4c0-1.5-1.3-2.8-2.8-2.8H94
				c-4.2,0-5.6-6-9.8-6H68.8c-1.6,0-2.8,1.2-2.8,2.8"/>
			<path class="st0" d="M68.8,203h50.4c1.5,0,2.8,1.3,2.8,2.8v30.4c0,1.5-1.3,2.8-2.8,2.8H68.8c-1.5,0-2.8-1.3-2.8-2.8v-30.4
				C66,204.3,67.3,203,68.8,203z"/>
			<path class="st5" d="M72.8,199h42.4c1.5,0,2.8,1.3,2.8,2.8v16.4c0,1.5-1.3,2.8-2.8,2.8H72.8c-1.5,0-2.8-1.3-2.8-2.8v-16.4
				C70,200.3,71.3,199,72.8,199z"/>
			<path class="st1" d="M68.8,204h50.4c1.5,0,2.8,1.3,2.8,2.8v30.4c0,1.5-1.3,2.8-2.8,2.8H68.8c-1.5,0-2.8-1.3-2.8-2.8v-30.4
				C66,205.3,67.3,204,68.8,204z"/>
			<path class="st3" d="M68.8,190c-1.5,0-2.8,1.3-2.8,2.8v1c0-1.6,1.2-2.8,2.8-2.8h15.4c4.2,0,5.6,6,9.8,6h25.2
				c1.6,0,2.8,1.2,2.8,2.8v-1c0-1.5-1.3-2.8-2.8-2.8H94c-4.2,0-5.6-6-9.8-6H68.8z"/>
		</g>
		<g>
			<path class="st0" d="M267.2,205h50.4c1.5,0,2.8,1.3,2.8,2.8v30.4c0,1.5-1.3,2.8-2.8,2.8h-50.4c-1.5,0-2.8-1.3-2.8-2.8v-30.4
				C264.4,206.3,265.7,205,267.2,205z"/>
			<path class="st4" d="M264.2,229.2c0,1.6,1.2,2.8,2.8,2.8h50.6c1.5,0,2.8-1.3,2.8-2.8v-30.4c0-1.5-1.3-2.8-2.8-2.8h-25.2
				c-4.2,0-5.6-6-9.8-6H267c-1.6,0-2.8,1.2-2.8,2.8"/>
			<path class="st0" d="M267.2,203h50.4c1.5,0,2.8,1.3,2.8,2.8v30.4c0,1.5-1.3,2.8-2.8,2.8h-50.4c-1.5,0-2.8-1.3-2.8-2.8v-30.4
				C264.4,204.3,265.7,203,267.2,203z"/>
			<path class="st5" d="M271.2,199h42.4c1.5,0,2.8,1.3,2.8,2.8v16.4c0,1.5-1.3,2.8-2.8,2.8h-42.4c-1.5,0-2.8-1.3-2.8-2.8v-16.4
				C268.4,200.3,269.7,199,271.2,199z"/>
			<path class="st1" d="M267.2,204h50.4c1.5,0,2.8,1.3,2.8,2.8v30.4c0,1.5-1.3,2.8-2.8,2.8h-50.4c-1.5,0-2.8-1.3-2.8-2.8v-30.4
				C264.4,205.3,265.7,204,267.2,204z"/>
			<path class="st3" d="M267.2,190c-1.5,0-2.8,1.3-2.8,2.8v1c0-1.6,1.2-2.8,2.8-2.8h15.4c4.2,0,5.6,6,9.8,6h25.2
				c1.6,0,2.8,1.2,2.8,2.8v-1c0-1.5-1.3-2.8-2.8-2.8h-25.2c-4.2,0-5.6-6-9.8-6H267.2z"/>
			<path class="st2" d="M281.4,215.5v13c0,0.8,0.7,1.5,1.5,1.5h15c0.8,0,1.5-0.7,1.5-1.5V222v-6.5c0-0.8-0.7-1.5-1.5-1.5h-15
				C282.1,214,281.4,214.7,281.4,215.5z M299.4,222l6,6v-12L299.4,222z"/>
		</g>
	</g>
	<g>
		<g>
			<path class="st0" d="M2.8,316h50.4c1.5,0,2.8,1.3,2.8,2.8v46.4c0,1.5-1.3,2.8-2.8,2.8H2.8c-1.5,0-2.8-1.3-2.8-2.8v-46.4
				C0,317.3,1.3,316,2.8,316z"/>
			<path class="st6" d="M0,322v42.2c0,1.5,1.3,2.8,2.8,2.8h50.4c1.5,0,2.8-1.3,2.8-2.8V322l-1-1H1L0,322z"/>
			<path class="st2" d="M0,317.8v4.2h56v-4.2c0-1.5-1.3-2.8-2.8-2.8H2.8C1.3,315,0,316.3,0,317.8z"/>
			<path class="st2" d="M14,362.8v4.2h26v-4.2c0-1.5-1.3-2.8-2.8-2.8H16.8C15.3,360,14,361.3,14,362.8z"/>
			<path class="st3" d="M0,317.8v1c0-1.5,1.2-2.8,2.8-2.8h50.4c1.5,0,2.8,1.2,2.8,2.8v-1c0-1.5-1.3-2.8-2.8-2.8H2.8
				C1.3,315,0,316.3,0,317.8z"/>
		</g>
		<g>
			<path class="st0" d="M135.2,331h50.4c1.5,0,2.8,1.3,2.8,2.8v30.4c0,1.5-1.3,2.8-2.8,2.8h-50.4c-1.5,0-2.8-1.3-2.8-2.8v-30.4
				C132.4,332.3,133.7,331,135.2,331z"/>
			<path class="st7" d="M132.2,355.2c0,1.6,1.2,2.8,2.8,2.8h50.6c1.5,0,2.8-1.3,2.8-2.8v-30.4c0-1.5-1.3-2.8-2.8-2.8h-25.2
				c-4.2,0-5.6-6-9.8-6H135c-1.6,0-2.8,1.2-2.8,2.8"/>
			<path class="st0" d="M135.2,329h50.4c1.5,0,2.8,1.3,2.8,2.8v30.4c0,1.5-1.3,2.8-2.8,2.8h-50.4c-1.5,0-2.8-1.3-2.8-2.8v-30.4
				C132.4,330.3,133.7,329,135.2,329z"/>
			<path class="st5" d="M139.2,325h42.4c1.5,0,2.8,1.3,2.8,2.8v16.4c0,1.5-1.3,2.8-2.8,2.8h-42.4c-1.5,0-2.8-1.3-2.8-2.8v-16.4
				C136.4,326.3,137.7,325,139.2,325z"/>
			<path class="st6" d="M135.2,330h50.4c1.5,0,2.8,1.3,2.8,2.8v30.4c0,1.5-1.3,2.8-2.8,2.8h-50.4c-1.5,0-2.8-1.3-2.8-2.8v-30.4
				C132.4,331.3,133.7,330,135.2,330z"/>
			<path class="st3" d="M135.2,316c-1.5,0-2.8,1.3-2.8,2.8v1c0-1.6,1.2-2.8,2.8-2.8h15.4c4.2,0,5.6,6,9.8,6h25.2
				c1.6,0,2.8,1.2,2.8,2.8v-1c0-1.5-1.3-2.8-2.8-2.8h-25.2c-4.2,0-5.6-6-9.8-6H135.2z"/>
			<path class="st2" d="M152.4,339.5v17c0,0.8,0.7,1.5,1.5,1.5h13c0.8,0,1.5-0.7,1.5-1.5V343l-5-5h-9.5
				C153.1,338,152.4,338.7,152.4,339.5z"/>
		</g>
		<g>
			<path class="st0" d="M399.4,331h50.4c1.5,0,2.8,1.3,2.8,2.8v30.4c0,1.5-1.3,2.8-2.8,2.8h-50.4c-1.5,0-2.8-1.3-2.8-2.8v-30.4
				C396.6,332.3,397.9,331,399.4,331z"/>
			<path class="st7" d="M396.6,355.2c0,1.6,1.2,2.8,2.8,2.8h50.4c1.5,0,2.8-1.3,2.8-2.8v-30.4c0-1.5-1.3-2.8-2.8-2.8h-25.2
				c-4.2,0-5.6-6-9.8-6h-15.4c-1.6,0-2.8,1.2-2.8,2.8"/>
			<path class="st0" d="M399.4,329h50.4c1.5,0,2.8,1.3,2.8,2.8v30.4c0,1.5-1.3,2.8-2.8,2.8h-50.4c-1.5,0-2.8-1.3-2.8-2.8v-30.4
				C396.6,330.3,397.9,329,399.4,329z"/>
			<path class="st5" d="M403.4,325h42.4c1.5,0,2.8,1.3,2.8,2.8v16.4c0,1.5-1.3,2.8-2.8,2.8h-42.4c-1.5,0-2.8-1.3-2.8-2.8v-16.4
				C400.6,326.3,401.9,325,403.4,325z"/>
			<path class="st6" d="M399.4,330h50.4c1.5,0,2.8,1.3,2.8,2.8v30.4c0,1.5-1.3,2.8-2.8,2.8h-50.4c-1.5,0-2.8-1.3-2.8-2.8v-30.4
				C396.6,331.3,397.9,330,399.4,330z"/>
			<path class="st3" d="M399.4,316c-1.5,0-2.8,1.3-2.8,2.8v1c0-1.6,1.2-2.8,2.8-2.8h15.4c4.2,0,5.6,6,9.8,6h25.2
				c1.6,0,2.8,1.2,2.8,2.8v-1c0-1.5-1.3-2.8-2.8-2.8h-25.2c-4.2,0-5.6-6-9.8-6H399.4z"/>
			<path class="st2" d="M422.6,338v8h-4l6,8l6-8h-4v-8H422.6z M416.6,354v4h16v-4H416.6z"/>
		</g>
		<g>
			<path class="st0" d="M333.4,331h50.4c1.5,0,2.8,1.3,2.8,2.8v30.4c0,1.5-1.3,2.8-2.8,2.8h-50.4c-1.5,0-2.8-1.3-2.8-2.8v-30.4
				C330.6,332.3,331.9,331,333.4,331z"/>
			<path class="st7" d="M330.4,355.2c0,1.6,1.2,2.8,2.8,2.8h50.6c1.5,0,2.8-1.3,2.8-2.8v-30.4c0-1.5-1.3-2.8-2.8-2.8h-25.2
				c-4.2,0-5.6-6-9.8-6h-15.6c-1.6,0-2.8,1.2-2.8,2.8"/>
			<path class="st0" d="M333.4,329h50.4c1.5,0,2.8,1.3,2.8,2.8v30.4c0,1.5-1.3,2.8-2.8,2.8h-50.4c-1.5,0-2.8-1.3-2.8-2.8v-30.4
				C330.6,330.3,331.9,329,333.4,329z"/>
			<path class="st5" d="M337.4,325h42.4c1.5,0,2.8,1.3,2.8,2.8v16.4c0,1.5-1.3,2.8-2.8,2.8h-42.4c-1.5,0-2.8-1.3-2.8-2.8v-16.4
				C334.6,326.3,335.9,325,337.4,325z"/>
			<path class="st6" d="M333.4,330h50.4c1.5,0,2.8,1.3,2.8,2.8v30.4c0,1.5-1.3,2.8-2.8,2.8h-50.4c-1.5,0-2.8-1.3-2.8-2.8v-30.4
				C330.6,331.3,331.9,330,333.4,330z"/>
			<path class="st3" d="M333.4,316c-1.5,0-2.8,1.3-2.8,2.8v1c0-1.6,1.2-2.8,2.8-2.8h15.4c4.2,0,5.6,6,9.8,6h25.2
				c1.6,0,2.8,1.2,2.8,2.8v-1c0-1.5-1.3-2.8-2.8-2.8h-25.2c-4.2,0-5.6-6-9.8-6H333.4z"/>
			<path class="st2" d="M355.6,349.5c-0.6-0.4-1.3-0.5-2-0.5c-2.5,0-4.5,2.3-3.9,4.9c0.3,1.4,1.5,2.6,2.9,2.9
				c2.6,0.6,4.9-1.4,4.9-3.9v-10h8v6.5c-0.6-0.4-1.3-0.5-2-0.5c-2.5,0-4.5,2.3-3.9,4.9c0.3,1.4,1.5,2.6,2.9,2.9
				c2.6,0.6,4.9-1.4,4.9-3.9v-14h-12"/>
		</g>
		<g>
			<path class="st0" d="M201.2,331h50.4c1.5,0,2.8,1.3,2.8,2.8v30.4c0,1.5-1.3,2.8-2.8,2.8h-50.4c-1.5,0-2.8-1.3-2.8-2.8v-30.4
				C198.4,332.3,199.7,331,201.2,331z"/>
			<path class="st7" d="M198.4,355.2c0,1.6,1.2,2.8,2.8,2.8h50.4c1.5,0,2.8-1.3,2.8-2.8v-30.4c0-1.5-1.3-2.8-2.8-2.8h-25.2
				c-4.2,0-5.6-6-9.8-6h-15.4c-1.6,0-2.8,1.2-2.8,2.8"/>
			<path class="st0" d="M201.2,329h50.4c1.5,0,2.8,1.3,2.8,2.8v30.4c0,1.5-1.3,2.8-2.8,2.8h-50.4c-1.5,0-2.8-1.3-2.8-2.8v-30.4
				C198.4,330.3,199.7,329,201.2,329z"/>
			<path class="st5" d="M205.2,325h42.4c1.5,0,2.8,1.3,2.8,2.8v16.4c0,1.5-1.3,2.8-2.8,2.8h-42.4c-1.5,0-2.8-1.3-2.8-2.8v-16.4
				C202.4,326.3,203.7,325,205.2,325z"/>
			<path class="st6" d="M201.2,330h50.4c1.5,0,2.8,1.3,2.8,2.8v30.4c0,1.5-1.3,2.8-2.8,2.8h-50.4c-1.5,0-2.8-1.3-2.8-2.8v-30.4
				C198.4,331.3,199.7,330,201.2,330z"/>
			<path class="st3" d="M201.2,316c-1.5,0-2.8,1.3-2.8,2.8v1c0-1.6,1.2-2.8,2.8-2.8h15.4c4.2,0,5.6,6,9.8,6h25.2
				c1.6,0,2.8,1.2,2.8,2.8v-1c0-1.5-1.3-2.8-2.8-2.8h-25.2c-4.2,0-5.6-6-9.8-6H201.2z"/>
			<path class="st2" d="M216.4,341.4v13.2c0,0.8,0.6,1.4,1.4,1.4H235c0.8,0,1.4-0.6,1.4-1.4v-13.2c0-0.8-0.6-1.4-1.4-1.4h-17.2
				C217.1,340,216.4,340.6,216.4,341.4z M222.4,346l6,6l3-4l3,4v2h-16v-4L222.4,346z"/>
		</g>
		<g>
			<path class="st0" d="M69,331h50.4c1.5,0,2.8,1.3,2.8,2.8v30.4c0,1.5-1.3,2.8-2.8,2.8H69c-1.5,0-2.8-1.3-2.8-2.8v-30.4
				C66.2,332.3,67.5,331,69,331z"/>
			<path class="st7" d="M66,355.2c0,1.6,1.2,2.8,2.8,2.8h50.6c1.5,0,2.8-1.3,2.8-2.8v-30.4c0-1.5-1.3-2.8-2.8-2.8H94.2
				c-4.2,0-5.6-6-9.8-6H68.8c-1.6,0-2.8,1.2-2.8,2.8"/>
			<path class="st0" d="M69,329h50.4c1.5,0,2.8,1.3,2.8,2.8v30.4c0,1.5-1.3,2.8-2.8,2.8H69c-1.5,0-2.8-1.3-2.8-2.8v-30.4
				C66.2,330.3,67.5,329,69,329z"/>
			<path class="st5" d="M73,325h42.4c1.5,0,2.8,1.3,2.8,2.8v16.4c0,1.5-1.3,2.8-2.8,2.8H73c-1.5,0-2.8-1.3-2.8-2.8v-16.4
				C70.2,326.3,71.5,325,73,325z"/>
			<path class="st6" d="M69,330h50.4c1.5,0,2.8,1.3,2.8,2.8v30.4c0,1.5-1.3,2.8-2.8,2.8H69c-1.5,0-2.8-1.3-2.8-2.8v-30.4
				C66.2,331.3,67.5,330,69,330z"/>
			<path class="st3" d="M69,316c-1.5,0-2.8,1.3-2.8,2.8v1c0-1.6,1.2-2.8,2.8-2.8h15.4c4.2,0,5.6,6,9.8,6h25.2c1.6,0,2.8,1.2,2.8,2.8
				v-1c0-1.5-1.3-2.8-2.8-2.8H94.2c-4.2,0-5.6-6-9.8-6H69z"/>
		</g>
		<g>
			<path class="st0" d="M267.2,331h50.4c1.5,0,2.8,1.3,2.8,2.8v30.4c0,1.5-1.3,2.8-2.8,2.8h-50.4c-1.5,0-2.8-1.3-2.8-2.8v-30.4
				C264.4,332.3,265.7,331,267.2,331z"/>
			<path class="st7" d="M264.4,355.2c0,1.6,1.2,2.8,2.8,2.8h50.4c1.5,0,2.8-1.3,2.8-2.8v-30.4c0-1.5-1.3-2.8-2.8-2.8h-25.2
				c-4.2,0-5.6-6-9.8-6h-15.4c-1.6,0-2.8,1.2-2.8,2.8"/>
			<path class="st0" d="M267.2,329h50.4c1.5,0,2.8,1.3,2.8,2.8v30.4c0,1.5-1.3,2.8-2.8,2.8h-50.4c-1.5,0-2.8-1.3-2.8-2.8v-30.4
				C264.4,330.3,265.7,329,267.2,329z"/>
			<path class="st5" d="M271.2,325h42.4c1.5,0,2.8,1.3,2.8,2.8v16.4c0,1.5-1.3,2.8-2.8,2.8h-42.4c-1.5,0-2.8-1.3-2.8-2.8v-16.4
				C268.4,326.3,269.7,325,271.2,325z"/>
			<path class="st6" d="M267.2,330h50.4c1.5,0,2.8,1.3,2.8,2.8v30.4c0,1.5-1.3,2.8-2.8,2.8h-50.4c-1.5,0-2.8-1.3-2.8-2.8v-30.4
				C264.4,331.3,265.7,330,267.2,330z"/>
			<path class="st3" d="M267.2,316c-1.5,0-2.8,1.3-2.8,2.8v1c0-1.6,1.2-2.8,2.8-2.8h15.4c4.2,0,5.6,6,9.8,6h25.2
				c1.6,0,2.8,1.2,2.8,2.8v-1c0-1.5-1.3-2.8-2.8-2.8h-25.2c-4.2,0-5.6-6-9.8-6H267.2z"/>
			<path class="st2" d="M281.4,341.5v13c0,0.8,0.7,1.5,1.5,1.5h15c0.8,0,1.5-0.7,1.5-1.5V348v-6.5c0-0.8-0.7-1.5-1.5-1.5h-15
				C282.1,340,281.4,340.7,281.4,341.5z M299.4,347.8l6,6v-12L299.4,347.8z"/>
		</g>
	</g>
	<g>
		<g>
			<path class="st0" d="M2.8,64h50.4c1.5,0,2.8,1.3,2.8,2.8v46.4c0,1.5-1.3,2.8-2.8,2.8H2.8c-1.5,0-2.8-1.3-2.8-2.8V66.8
				C0,65.3,1.3,64,2.8,64z"/>
			<path class="st8" d="M0,70v42.2c0,1.5,1.3,2.8,2.8,2.8h50.4c1.5,0,2.8-1.3,2.8-2.8V70l-1-1H1L0,70z"/>
			<path class="st2" d="M0,65.8V70h56v-4.2c0-1.5-1.3-2.8-2.8-2.8H2.8C1.3,63,0,64.3,0,65.8z"/>
			<path class="st2" d="M14,110.8v4.2h26v-4.2c0-1.5-1.3-2.8-2.8-2.8H16.8C15.3,108,14,109.3,14,110.8z"/>
			<path class="st3" d="M0,65.8v1C0,65.2,1.3,64,2.8,64h50.4c1.5,0,2.8,1.2,2.8,2.8v-1c0-1.5-1.3-2.8-2.8-2.8H2.8
				C1.3,63,0,64.3,0,65.8z"/>
		</g>
		<g>
			<path class="st0" d="M134.8,79h50.4c1.5,0,2.8,1.3,2.8,2.8v30.4c0,1.5-1.3,2.8-2.8,2.8h-50.4c-1.5,0-2.8-1.3-2.8-2.8V81.8
				C132,80.3,133.3,79,134.8,79z"/>
			<path class="st9" d="M132,103.2c0,1.6,1.2,2.8,2.8,2.8h50.4c1.5,0,2.8-1.3,2.8-2.8V72.8c0-1.5-1.3-2.8-2.8-2.8H160
				c-4.2,0-5.6-6-9.8-6h-15.4c-1.6,0-2.8,1.2-2.8,2.8"/>
			<path class="st0" d="M134.8,77h50.4c1.5,0,2.8,1.3,2.8,2.8v30.4c0,1.5-1.3,2.8-2.8,2.8h-50.4c-1.5,0-2.8-1.3-2.8-2.8V79.8
				C132,78.3,133.3,77,134.8,77z"/>
			<path class="st5" d="M138.8,73h42.4c1.5,0,2.8,1.3,2.8,2.8v16.4c0,1.5-1.3,2.8-2.8,2.8h-42.4c-1.5,0-2.8-1.3-2.8-2.8V75.8
				C136,74.3,137.3,73,138.8,73z"/>
			<path class="st8" d="M134.8,78h50.4c1.5,0,2.8,1.3,2.8,2.8v30.4c0,1.5-1.3,2.8-2.8,2.8h-50.4c-1.5,0-2.8-1.3-2.8-2.8V80.8
				C132,79.3,133.3,78,134.8,78z"/>
			<path class="st3" d="M134.8,64c-1.5,0-2.8,1.3-2.8,2.8v1c0-1.6,1.2-2.8,2.8-2.8h15.4c4.2,0,5.6,6,9.8,6h25.2
				c1.6,0,2.8,1.2,2.8,2.8v-1c0-1.5-1.3-2.8-2.8-2.8H160c-4.2,0-5.6-6-9.8-6H134.8z"/>
			<path class="st2" d="M152,87.5v17c0,0.8,0.7,1.5,1.5,1.5h13c0.8,0,1.5-0.7,1.5-1.5V91l-5-5h-9.5C152.7,86,152,86.7,152,87.5z"/>
		</g>
		<g>
			<path class="st0" d="M399.4,79h50.4c1.5,0,2.8,1.3,2.8,2.8v30.4c0,1.5-1.3,2.8-2.8,2.8h-50.4c-1.5,0-2.8-1.3-2.8-2.8V81.8
				C396.6,80.3,397.9,79,399.4,79z"/>
			<path class="st9" d="M396.4,103.2c0,1.6,1.2,2.8,2.8,2.8h50.6c1.5,0,2.8-1.3,2.8-2.8V72.8c0-1.5-1.3-2.8-2.8-2.8h-25.2
				c-4.2,0-5.6-6-9.8-6h-15.6c-1.6,0-2.8,1.2-2.8,2.8"/>
			<path class="st0" d="M399.4,77h50.4c1.5,0,2.8,1.3,2.8,2.8v30.4c0,1.5-1.3,2.8-2.8,2.8h-50.4c-1.5,0-2.8-1.3-2.8-2.8V79.8
				C396.6,78.3,397.9,77,399.4,77z"/>
			<path class="st5" d="M403.4,73h42.4c1.5,0,2.8,1.3,2.8,2.8v16.4c0,1.5-1.3,2.8-2.8,2.8h-42.4c-1.5,0-2.8-1.3-2.8-2.8V75.8
				C400.6,74.3,401.9,73,403.4,73z"/>
			<path class="st8" d="M399.4,78h50.4c1.5,0,2.8,1.3,2.8,2.8v30.4c0,1.5-1.3,2.8-2.8,2.8h-50.4c-1.5,0-2.8-1.3-2.8-2.8V80.8
				C396.6,79.3,397.9,78,399.4,78z"/>
			<path class="st3" d="M399.4,64c-1.5,0-2.8,1.3-2.8,2.8v1c0-1.6,1.2-2.8,2.8-2.8h15.4c4.2,0,5.6,6,9.8,6h25.2
				c1.6,0,2.8,1.2,2.8,2.8v-1c0-1.5-1.3-2.8-2.8-2.8h-25.2c-4.2,0-5.6-6-9.8-6H399.4z"/>
			<path class="st2" d="M422.6,86v8h-4l6,8l6-8h-4v-8H422.6z M416.6,102v4h16v-4H416.6z"/>
		</g>
		<g>
			<path class="st0" d="M333.2,79h50.4c1.5,0,2.8,1.3,2.8,2.8v30.4c0,1.5-1.3,2.8-2.8,2.8h-50.4c-1.5,0-2.8-1.3-2.8-2.8V81.8
				C330.4,80.3,331.7,79,333.2,79z"/>
			<path class="st9" d="M330.4,103.2c0,1.6,1.2,2.8,2.8,2.8h50.4c1.5,0,2.8-1.3,2.8-2.8V72.8c0-1.5-1.3-2.8-2.8-2.8h-25.2
				c-4.2,0-5.6-6-9.8-6h-15.4c-1.6,0-2.8,1.2-2.8,2.8"/>
			<path class="st0" d="M333.2,77h50.4c1.5,0,2.8,1.3,2.8,2.8v30.4c0,1.5-1.3,2.8-2.8,2.8h-50.4c-1.5,0-2.8-1.3-2.8-2.8V79.8
				C330.4,78.3,331.7,77,333.2,77z"/>
			<path class="st5" d="M337.2,73h42.4c1.5,0,2.8,1.3,2.8,2.8v16.4c0,1.5-1.3,2.8-2.8,2.8h-42.4c-1.5,0-2.8-1.3-2.8-2.8V75.8
				C334.4,74.3,335.7,73,337.2,73z"/>
			<path class="st8" d="M333.2,78h50.4c1.5,0,2.8,1.3,2.8,2.8v30.4c0,1.5-1.3,2.8-2.8,2.8h-50.4c-1.5,0-2.8-1.3-2.8-2.8V80.8
				C330.4,79.3,331.7,78,333.2,78z"/>
			<path class="st3" d="M333.2,64c-1.5,0-2.8,1.3-2.8,2.8v1c0-1.6,1.2-2.8,2.8-2.8h15.4c4.2,0,5.6,6,9.8,6h25.2
				c1.6,0,2.8,1.2,2.8,2.8v-1c0-1.5-1.3-2.8-2.8-2.8h-25.2c-4.2,0-5.6-6-9.8-6H333.2z"/>
			<path class="st2" d="M355.4,97.3c-0.6-0.4-1.3-0.5-2-0.5c-2.5,0-4.5,2.3-3.9,4.9c0.3,1.4,1.5,2.6,2.9,2.9
				c2.6,0.6,4.9-1.4,4.9-3.9V91h8v6.5c-0.6-0.4-1.3-0.5-2-0.5c-2.5,0-4.5,2.3-3.9,4.9c0.3,1.4,1.5,2.6,2.9,2.9
				c2.6,0.6,4.9-1.4,4.9-3.9V87h-12"/>
		</g>
		<g>
			<path class="st0" d="M201,79h50.4c1.5,0,2.8,1.3,2.8,2.8v30.4c0,1.5-1.3,2.8-2.8,2.8H201c-1.5,0-2.8-1.3-2.8-2.8V81.8
				C198.2,80.3,199.5,79,201,79z"/>
			<path class="st9" d="M198,103.2c0,1.6,1.2,2.8,2.8,2.8h50.6c1.5,0,2.8-1.3,2.8-2.8V72.8c0-1.5-1.3-2.8-2.8-2.8h-25.2
				c-4.2,0-5.6-6-9.8-6h-15.6c-1.6,0-2.8,1.2-2.8,2.8"/>
			<path class="st0" d="M201,77h50.4c1.5,0,2.8,1.3,2.8,2.8v30.4c0,1.5-1.3,2.8-2.8,2.8H201c-1.5,0-2.8-1.3-2.8-2.8V79.8
				C198.2,78.3,199.5,77,201,77z"/>
			<path class="st5" d="M205,73h42.4c1.5,0,2.8,1.3,2.8,2.8v16.4c0,1.5-1.3,2.8-2.8,2.8H205c-1.5,0-2.8-1.3-2.8-2.8V75.8
				C202.2,74.3,203.5,73,205,73z"/>
			<path class="st8" d="M201,78h50.4c1.5,0,2.8,1.3,2.8,2.8v30.4c0,1.5-1.3,2.8-2.8,2.8H201c-1.5,0-2.8-1.3-2.8-2.8V80.8
				C198.2,79.3,199.5,78,201,78z"/>
			<path class="st3" d="M201,64c-1.5,0-2.8,1.3-2.8,2.8v1c0-1.6,1.2-2.8,2.8-2.8h15.4c4.2,0,5.6,6,9.8,6h25.2c1.6,0,2.8,1.2,2.8,2.8
				v-1c0-1.5-1.3-2.8-2.8-2.8h-25.2c-4.2,0-5.6-6-9.8-6H201z"/>
			<path class="st2" d="M216.2,89.4v13.2c0,0.8,0.6,1.4,1.4,1.4h17.2c0.8,0,1.4-0.6,1.4-1.4V89.4c0-0.8-0.6-1.4-1.4-1.4h-17.2
				C216.9,88,216.2,88.6,216.2,89.4z M222.2,94l6,6l3-4l3,4v2h-16v-4L222.2,94z"/>
		</g>
		<g>
			<path class="st0" d="M68.8,79h50.4c1.5,0,2.8,1.3,2.8,2.8v30.4c0,1.5-1.3,2.8-2.8,2.8H68.8c-1.5,0-2.8-1.3-2.8-2.8V81.8
				C66,80.3,67.3,79,68.8,79z"/>
			<path class="st9" d="M66,103.2c0,1.6,1.2,2.8,2.8,2.8h50.4c1.5,0,2.8-1.3,2.8-2.8V72.8c0-1.5-1.3-2.8-2.8-2.8H94
				c-4.2,0-5.6-6-9.8-6H68.8c-1.6,0-2.8,1.2-2.8,2.8"/>
			<path class="st0" d="M68.8,77h50.4c1.5,0,2.8,1.3,2.8,2.8v30.4c0,1.5-1.3,2.8-2.8,2.8H68.8c-1.5,0-2.8-1.3-2.8-2.8V79.8
				C66,78.3,67.3,77,68.8,77z"/>
			<path class="st5" d="M72.8,73h42.4c1.5,0,2.8,1.3,2.8,2.8v16.4c0,1.5-1.3,2.8-2.8,2.8H72.8c-1.5,0-2.8-1.3-2.8-2.8V75.8
				C70,74.3,71.3,73,72.8,73z"/>
			<path class="st8" d="M68.8,78h50.4c1.5,0,2.8,1.3,2.8,2.8v30.4c0,1.5-1.3,2.8-2.8,2.8H68.8c-1.5,0-2.8-1.3-2.8-2.8V80.8
				C66,79.3,67.3,78,68.8,78z"/>
			<path class="st3" d="M68.8,64c-1.5,0-2.8,1.3-2.8,2.8v1c0-1.6,1.2-2.8,2.8-2.8h15.4c4.2,0,5.6,6,9.8,6h25.2
				c1.6,0,2.8,1.2,2.8,2.8v-1c0-1.5-1.3-2.8-2.8-2.8H94c-4.2,0-5.6-6-9.8-6H68.8z"/>
		</g>
		<g>
			<path class="st0" d="M267.2,79h50.4c1.5,0,2.8,1.3,2.8,2.8v30.4c0,1.5-1.3,2.8-2.8,2.8h-50.4c-1.5,0-2.8-1.3-2.8-2.8V81.8
				C264.4,80.3,265.7,79,267.2,79z"/>
			<path class="st9" d="M264.2,103.2c0,1.6,1.2,2.8,2.8,2.8h50.6c1.5,0,2.8-1.3,2.8-2.8V72.8c0-1.5-1.3-2.8-2.8-2.8h-25.2
				c-4.2,0-5.6-6-9.8-6H267c-1.6,0-2.8,1.2-2.8,2.8"/>
			<path class="st0" d="M267.2,77h50.4c1.5,0,2.8,1.3,2.8,2.8v30.4c0,1.5-1.3,2.8-2.8,2.8h-50.4c-1.5,0-2.8-1.3-2.8-2.8V79.8
				C264.4,78.3,265.7,77,267.2,77z"/>
			<path class="st5" d="M271.2,73h42.4c1.5,0,2.8,1.3,2.8,2.8v16.4c0,1.5-1.3,2.8-2.8,2.8h-42.4c-1.5,0-2.8-1.3-2.8-2.8V75.8
				C268.4,74.3,269.7,73,271.2,73z"/>
			<path class="st8" d="M267.2,78h50.4c1.5,0,2.8,1.3,2.8,2.8v30.4c0,1.5-1.3,2.8-2.8,2.8h-50.4c-1.5,0-2.8-1.3-2.8-2.8V80.8
				C264.4,79.3,265.7,78,267.2,78z"/>
			<path class="st3" d="M267.2,64c-1.5,0-2.8,1.3-2.8,2.8v1c0-1.6,1.2-2.8,2.8-2.8h15.4c4.2,0,5.6,6,9.8,6h25.2
				c1.6,0,2.8,1.2,2.8,2.8v-1c0-1.5-1.3-2.8-2.8-2.8h-25.2c-4.2,0-5.6-6-9.8-6H267.2z"/>
			<path class="st2" d="M281.4,89.5v13c0,0.8,0.7,1.5,1.5,1.5h15c0.8,0,1.5-0.7,1.5-1.5V96v-6.5c0-0.8-0.7-1.5-1.5-1.5h-15
				C282.1,88,281.4,88.7,281.4,89.5z M299.4,96l6,6V90L299.4,96z"/>
		</g>
	</g>
	<g>
		<g>
			<path class="st0" d="M2.8,127h50.4c1.5,0,2.8,1.3,2.8,2.8v46.4c0,1.5-1.3,2.8-2.8,2.8H2.8c-1.5,0-2.8-1.3-2.8-2.8v-46.4
				C0,128.3,1.3,127,2.8,127z"/>
			<path class="st10" d="M0,133v42.2c0,1.5,1.3,2.8,2.8,2.8h50.4c1.5,0,2.8-1.3,2.8-2.8V133l-1-1H1L0,133z"/>
			<path class="st2" d="M0,128.8v4.2h56v-4.2c0-1.5-1.3-2.8-2.8-2.8H2.8C1.3,126,0,127.3,0,128.8z"/>
			<path class="st2" d="M14,173.8v4.2h26v-4.2c0-1.5-1.3-2.8-2.8-2.8H16.8C15.3,171,14,172.3,14,173.8z"/>
			<path class="st3" d="M0,128.8v1c0-1.6,1.2-2.8,2.8-2.8h50.4c1.5,0,2.8,1.2,2.8,2.8v-1c0-1.5-1.3-2.8-2.8-2.8H2.8
				C1.3,126,0,127.3,0,128.8z"/>
		</g>
		<g>
			<path class="st0" d="M135.2,142h50.4c1.5,0,2.8,1.3,2.8,2.8v30.4c0,1.5-1.3,2.8-2.8,2.8h-50.4c-1.5,0-2.8-1.3-2.8-2.8v-30.4
				C132.4,143.3,133.7,142,135.2,142z"/>
			<path class="st11" d="M132.2,166.2c0,1.6,1.2,2.8,2.8,2.8h50.6c1.5,0,2.8-1.3,2.8-2.8v-30.4c0-1.5-1.3-2.8-2.8-2.8h-25.2
				c-4.2,0-5.6-6-9.8-6H135c-1.6,0-2.8,1.2-2.8,2.8"/>
			<path class="st0" d="M135.2,140h50.4c1.5,0,2.8,1.3,2.8,2.8v30.4c0,1.5-1.3,2.8-2.8,2.8h-50.4c-1.5,0-2.8-1.3-2.8-2.8v-30.4
				C132.4,141.3,133.7,140,135.2,140z"/>
			<path class="st5" d="M139.2,136h42.4c1.5,0,2.8,1.3,2.8,2.8v16.4c0,1.5-1.3,2.8-2.8,2.8h-42.4c-1.5,0-2.8-1.3-2.8-2.8v-16.4
				C136.4,137.3,137.7,136,139.2,136z"/>
			<path class="st10" d="M135.2,141h50.4c1.5,0,2.8,1.3,2.8,2.8v30.4c0,1.5-1.3,2.8-2.8,2.8h-50.4c-1.5,0-2.8-1.3-2.8-2.8v-30.4
				C132.4,142.3,133.7,141,135.2,141z"/>
			<path class="st3" d="M135.2,127c-1.5,0-2.8,1.3-2.8,2.8v1c0-1.6,1.2-2.8,2.8-2.8h15.4c4.2,0,5.6,6,9.8,6h25.2
				c1.6,0,2.8,1.2,2.8,2.8v-1c0-1.5-1.3-2.8-2.8-2.8h-25.2c-4.2,0-5.6-6-9.8-6H135.2z"/>
			<path class="st2" d="M152.4,150.5v17c0,0.8,0.7,1.5,1.5,1.5h13c0.8,0,1.5-0.7,1.5-1.5V154l-5-5h-9.5
				C153.1,149,152.4,149.7,152.4,150.5z"/>
		</g>
		<g>
			<path class="st0" d="M399.4,142h50.4c1.5,0,2.8,1.3,2.8,2.8v30.4c0,1.5-1.3,2.8-2.8,2.8h-50.4c-1.5,0-2.8-1.3-2.8-2.8v-30.4
				C396.6,143.3,397.9,142,399.4,142z"/>
			<path class="st11" d="M396.6,166.2c0,1.6,1.2,2.8,2.8,2.8h50.4c1.5,0,2.8-1.3,2.8-2.8v-30.4c0-1.5-1.3-2.8-2.8-2.8h-25.2
				c-4.2,0-5.6-6-9.8-6h-15.4c-1.6,0-2.8,1.2-2.8,2.8"/>
			<path class="st0" d="M399.4,140h50.4c1.5,0,2.8,1.3,2.8,2.8v30.4c0,1.5-1.3,2.8-2.8,2.8h-50.4c-1.5,0-2.8-1.3-2.8-2.8v-30.4
				C396.6,141.3,397.9,140,399.4,140z"/>
			<path class="st5" d="M403.4,136h42.4c1.5,0,2.8,1.3,2.8,2.8v16.4c0,1.5-1.3,2.8-2.8,2.8h-42.4c-1.5,0-2.8-1.3-2.8-2.8v-16.4
				C400.6,137.3,401.9,136,403.4,136z"/>
			<path class="st10" d="M399.4,141h50.4c1.5,0,2.8,1.3,2.8,2.8v30.4c0,1.5-1.3,2.8-2.8,2.8h-50.4c-1.5,0-2.8-1.3-2.8-2.8v-30.4
				C396.6,142.3,397.9,141,399.4,141z"/>
			<path class="st3" d="M399.4,127c-1.5,0-2.8,1.3-2.8,2.8v1c0-1.6,1.2-2.8,2.8-2.8h15.4c4.2,0,5.6,6,9.8,6h25.2
				c1.6,0,2.8,1.2,2.8,2.8v-1c0-1.5-1.3-2.8-2.8-2.8h-25.2c-4.2,0-5.6-6-9.8-6H399.4z"/>
			<path class="st2" d="M422.6,149v8h-4l6,8l6-8h-4v-8H422.6z M416.6,165v4h16v-4H416.6z"/>
		</g>
		<g>
			<path class="st0" d="M333.4,142h50.4c1.5,0,2.8,1.3,2.8,2.8v30.4c0,1.5-1.3,2.8-2.8,2.8h-50.4c-1.5,0-2.8-1.3-2.8-2.8v-30.4
				C330.6,143.3,331.9,142,333.4,142z"/>
			<path class="st11" d="M330.4,166.2c0,1.6,1.2,2.8,2.8,2.8h50.6c1.5,0,2.8-1.3,2.8-2.8v-30.4c0-1.5-1.3-2.8-2.8-2.8h-25.2
				c-4.2,0-5.6-6-9.8-6h-15.6c-1.6,0-2.8,1.2-2.8,2.8"/>
			<path class="st0" d="M333.4,140h50.4c1.5,0,2.8,1.3,2.8,2.8v30.4c0,1.5-1.3,2.8-2.8,2.8h-50.4c-1.5,0-2.8-1.3-2.8-2.8v-30.4
				C330.6,141.3,331.9,140,333.4,140z"/>
			<path class="st5" d="M337.4,136h42.4c1.5,0,2.8,1.3,2.8,2.8v16.4c0,1.5-1.3,2.8-2.8,2.8h-42.4c-1.5,0-2.8-1.3-2.8-2.8v-16.4
				C334.6,137.3,335.9,136,337.4,136z"/>
			<path class="st10" d="M333.4,141h50.4c1.5,0,2.8,1.3,2.8,2.8v30.4c0,1.5-1.3,2.8-2.8,2.8h-50.4c-1.5,0-2.8-1.3-2.8-2.8v-30.4
				C330.6,142.3,331.9,141,333.4,141z"/>
			<path class="st3" d="M333.4,127c-1.5,0-2.8,1.3-2.8,2.8v1c0-1.6,1.2-2.8,2.8-2.8h15.4c4.2,0,5.6,6,9.8,6h25.2
				c1.6,0,2.8,1.2,2.8,2.8v-1c0-1.5-1.3-2.8-2.8-2.8h-25.2c-4.2,0-5.6-6-9.8-6H333.4z"/>
			<path class="st2" d="M355.6,160.5c-0.6-0.4-1.3-0.5-2-0.5c-2.5,0-4.5,2.3-3.9,4.9c0.3,1.4,1.5,2.6,2.9,2.9
				c2.6,0.6,4.9-1.4,4.9-3.9v-10h8v6.5c-0.6-0.4-1.3-0.5-2-0.5c-2.5,0-4.5,2.3-3.9,4.9c0.3,1.4,1.5,2.6,2.9,2.9
				c2.6,0.6,4.9-1.4,4.9-3.9v-14h-12"/>
		</g>
		<g>
			<path class="st0" d="M201.2,142h50.4c1.5,0,2.8,1.3,2.8,2.8v30.4c0,1.5-1.3,2.8-2.8,2.8h-50.4c-1.5,0-2.8-1.3-2.8-2.8v-30.4
				C198.4,143.3,199.7,142,201.2,142z"/>
			<path class="st11" d="M198.4,166.2c0,1.6,1.2,2.8,2.8,2.8h50.4c1.5,0,2.8-1.3,2.8-2.8v-30.4c0-1.5-1.3-2.8-2.8-2.8h-25.2
				c-4.2,0-5.6-6-9.8-6h-15.4c-1.6,0-2.8,1.2-2.8,2.8"/>
			<path class="st0" d="M201.2,140h50.4c1.5,0,2.8,1.3,2.8,2.8v30.4c0,1.5-1.3,2.8-2.8,2.8h-50.4c-1.5,0-2.8-1.3-2.8-2.8v-30.4
				C198.4,141.3,199.7,140,201.2,140z"/>
			<path class="st5" d="M205.2,136h42.4c1.5,0,2.8,1.3,2.8,2.8v16.4c0,1.5-1.3,2.8-2.8,2.8h-42.4c-1.5,0-2.8-1.3-2.8-2.8v-16.4
				C202.4,137.3,203.7,136,205.2,136z"/>
			<path class="st10" d="M201.2,141h50.4c1.5,0,2.8,1.3,2.8,2.8v30.4c0,1.5-1.3,2.8-2.8,2.8h-50.4c-1.5,0-2.8-1.3-2.8-2.8v-30.4
				C198.4,142.3,199.7,141,201.2,141z"/>
			<path class="st3" d="M201.2,127c-1.5,0-2.8,1.3-2.8,2.8v1c0-1.6,1.2-2.8,2.8-2.8h15.4c4.2,0,5.6,6,9.8,6h25.2
				c1.6,0,2.8,1.2,2.8,2.8v-1c0-1.5-1.3-2.8-2.8-2.8h-25.2c-4.2,0-5.6-6-9.8-6H201.2z"/>
			<path class="st2" d="M216.4,152.4v13.2c0,0.8,0.6,1.4,1.4,1.4H235c0.8,0,1.4-0.6,1.4-1.4v-13.2c0-0.8-0.6-1.4-1.4-1.4h-17.2
				C217.1,151,216.4,151.6,216.4,152.4z M222.4,157l6,6l3-4l3,4v2h-16v-4L222.4,157z"/>
		</g>
		<g>
			<path class="st0" d="M69,142h50.4c1.5,0,2.8,1.3,2.8,2.8v30.4c0,1.5-1.3,2.8-2.8,2.8H69c-1.5,0-2.8-1.3-2.8-2.8v-30.4
				C66.2,143.3,67.5,142,69,142z"/>
			<path class="st11" d="M66,166.2c0,1.6,1.2,2.8,2.8,2.8h50.6c1.5,0,2.8-1.3,2.8-2.8v-30.4c0-1.5-1.3-2.8-2.8-2.8H94.2
				c-4.2,0-5.6-6-9.8-6H68.8c-1.6,0-2.8,1.2-2.8,2.8"/>
			<path class="st0" d="M69,140h50.4c1.5,0,2.8,1.3,2.8,2.8v30.4c0,1.5-1.3,2.8-2.8,2.8H69c-1.5,0-2.8-1.3-2.8-2.8v-30.4
				C66.2,141.3,67.5,140,69,140z"/>
			<path class="st5" d="M73,136h42.4c1.5,0,2.8,1.3,2.8,2.8v16.4c0,1.5-1.3,2.8-2.8,2.8H73c-1.5,0-2.8-1.3-2.8-2.8v-16.4
				C70.2,137.3,71.5,136,73,136z"/>
			<path class="st10" d="M69,141h50.4c1.5,0,2.8,1.3,2.8,2.8v30.4c0,1.5-1.3,2.8-2.8,2.8H69c-1.5,0-2.8-1.3-2.8-2.8v-30.4
				C66.2,142.3,67.5,141,69,141z"/>
			<path class="st3" d="M69,127c-1.5,0-2.8,1.3-2.8,2.8v1c0-1.6,1.2-2.8,2.8-2.8h15.4c4.2,0,5.6,6,9.8,6h25.2c1.6,0,2.8,1.2,2.8,2.8
				v-1c0-1.5-1.3-2.8-2.8-2.8H94.2c-4.2,0-5.6-6-9.8-6H69z"/>
		</g>
		<g>
			<path class="st0" d="M267.2,142h50.4c1.5,0,2.8,1.3,2.8,2.8v30.4c0,1.5-1.3,2.8-2.8,2.8h-50.4c-1.5,0-2.8-1.3-2.8-2.8v-30.4
				C264.4,143.3,265.7,142,267.2,142z"/>
			<path class="st11" d="M264.4,166.2c0,1.6,1.2,2.8,2.8,2.8h50.4c1.5,0,2.8-1.3,2.8-2.8v-30.4c0-1.5-1.3-2.8-2.8-2.8h-25.2
				c-4.2,0-5.6-6-9.8-6h-15.4c-1.6,0-2.8,1.2-2.8,2.8"/>
			<path class="st0" d="M267.2,140h50.4c1.5,0,2.8,1.3,2.8,2.8v30.4c0,1.5-1.3,2.8-2.8,2.8h-50.4c-1.5,0-2.8-1.3-2.8-2.8v-30.4
				C264.4,141.3,265.7,140,267.2,140z"/>
			<path class="st5" d="M271.2,136h42.4c1.5,0,2.8,1.3,2.8,2.8v16.4c0,1.5-1.3,2.8-2.8,2.8h-42.4c-1.5,0-2.8-1.3-2.8-2.8v-16.4
				C268.4,137.3,269.7,136,271.2,136z"/>
			<path class="st10" d="M267.2,141h50.4c1.5,0,2.8,1.3,2.8,2.8v30.4c0,1.5-1.3,2.8-2.8,2.8h-50.4c-1.5,0-2.8-1.3-2.8-2.8v-30.4
				C264.4,142.3,265.7,141,267.2,141z"/>
			<path class="st3" d="M267.2,127c-1.5,0-2.8,1.3-2.8,2.8v1c0-1.6,1.2-2.8,2.8-2.8h15.4c4.2,0,5.6,6,9.8,6h25.2
				c1.6,0,2.8,1.2,2.8,2.8v-1c0-1.5-1.3-2.8-2.8-2.8h-25.2c-4.2,0-5.6-6-9.8-6H267.2z"/>
			<path class="st2" d="M281.4,152.5v13c0,0.8,0.7,1.5,1.5,1.5h15c0.8,0,1.5-0.7,1.5-1.5V159v-6.5c0-0.8-0.7-1.5-1.5-1.5h-15
				C282.1,151,281.4,151.7,281.4,152.5z M299.4,158.8l6,6v-12L299.4,158.8z"/>
		</g>
	</g>
	<g>
		<g>
			<path class="st0" d="M2.8,253h50.4c1.5,0,2.8,1.3,2.8,2.8v46.4c0,1.5-1.3,2.8-2.8,2.8H2.8c-1.5,0-2.8-1.3-2.8-2.8v-46.4
				C0,254.3,1.3,253,2.8,253z"/>
			<path class="st12" d="M0,259v42.2c0,1.5,1.3,2.8,2.8,2.8h50.4c1.5,0,2.8-1.3,2.8-2.8V259l-1-1H1L0,259z"/>
			<path class="st2" d="M0,254.8v4.2h56v-4.2c0-1.5-1.3-2.8-2.8-2.8H2.8C1.3,252,0,253.3,0,254.8z"/>
			<path class="st2" d="M14,299.8v4.2h26v-4.2c0-1.5-1.3-2.8-2.8-2.8H16.8C15.3,297,14,298.3,14,299.8z"/>
			<path class="st3" d="M0,254.8v1c0-1.6,1.2-2.8,2.8-2.8h50.4c1.5,0,2.8,1.2,2.8,2.8v-1c0-1.5-1.3-2.8-2.8-2.8H2.8
				C1.3,252,0,253.3,0,254.8z"/>
		</g>
		<g>
			<path class="st0" d="M134.8,268h50.4c1.5,0,2.8,1.3,2.8,2.8v30.4c0,1.5-1.3,2.8-2.8,2.8h-50.4c-1.5,0-2.8-1.3-2.8-2.8v-30.4
				C132,269.3,133.3,268,134.8,268z"/>
			<path class="st13" d="M132,292.2c0,1.6,1.2,2.8,2.8,2.8h50.4c1.5,0,2.8-1.3,2.8-2.8v-30.4c0-1.5-1.3-2.8-2.8-2.8H160
				c-4.2,0-5.6-6-9.8-6h-15.4c-1.6,0-2.8,1.2-2.8,2.8"/>
			<path class="st0" d="M134.8,266h50.4c1.5,0,2.8,1.3,2.8,2.8v30.4c0,1.5-1.3,2.8-2.8,2.8h-50.4c-1.5,0-2.8-1.3-2.8-2.8v-30.4
				C132,267.3,133.3,266,134.8,266z"/>
			<path class="st5" d="M138.8,262h42.4c1.5,0,2.8,1.3,2.8,2.8v16.4c0,1.5-1.3,2.8-2.8,2.8h-42.4c-1.5,0-2.8-1.3-2.8-2.8v-16.4
				C136,263.3,137.3,262,138.8,262z"/>
			<path class="st12" d="M134.8,267h50.4c1.5,0,2.8,1.3,2.8,2.8v30.4c0,1.5-1.3,2.8-2.8,2.8h-50.4c-1.5,0-2.8-1.3-2.8-2.8v-30.4
				C132,268.3,133.3,267,134.8,267z"/>
			<path class="st3" d="M134.8,253c-1.5,0-2.8,1.3-2.8,2.8v1c0-1.6,1.2-2.8,2.8-2.8h15.4c4.2,0,5.6,6,9.8,6h25.2
				c1.6,0,2.8,1.2,2.8,2.8v-1c0-1.5-1.3-2.8-2.8-2.8H160c-4.2,0-5.6-6-9.8-6H134.8z"/>
			<path class="st2" d="M152,276.5v17c0,0.8,0.7,1.5,1.5,1.5h13c0.8,0,1.5-0.7,1.5-1.5V280l-5-5h-9.5C152.7,275,152,275.7,152,276.5
				z"/>
		</g>
		<g>
			<path class="st0" d="M399.4,268h50.4c1.5,0,2.8,1.3,2.8,2.8v30.4c0,1.5-1.3,2.8-2.8,2.8h-50.4c-1.5,0-2.8-1.3-2.8-2.8v-30.4
				C396.6,269.3,397.9,268,399.4,268z"/>
			<path class="st13" d="M396.4,292.2c0,1.6,1.2,2.8,2.8,2.8h50.6c1.5,0,2.8-1.3,2.8-2.8v-30.4c0-1.5-1.3-2.8-2.8-2.8h-25.2
				c-4.2,0-5.6-6-9.8-6h-15.6c-1.6,0-2.8,1.2-2.8,2.8"/>
			<path class="st0" d="M399.4,266h50.4c1.5,0,2.8,1.3,2.8,2.8v30.4c0,1.5-1.3,2.8-2.8,2.8h-50.4c-1.5,0-2.8-1.3-2.8-2.8v-30.4
				C396.6,267.3,397.9,266,399.4,266z"/>
			<path class="st5" d="M403.4,262h42.4c1.5,0,2.8,1.3,2.8,2.8v16.4c0,1.5-1.3,2.8-2.8,2.8h-42.4c-1.5,0-2.8-1.3-2.8-2.8v-16.4
				C400.6,263.3,401.9,262,403.4,262z"/>
			<path class="st12" d="M399.4,267h50.4c1.5,0,2.8,1.3,2.8,2.8v30.4c0,1.5-1.3,2.8-2.8,2.8h-50.4c-1.5,0-2.8-1.3-2.8-2.8v-30.4
				C396.6,268.3,397.9,267,399.4,267z"/>
			<path class="st3" d="M399.4,253c-1.5,0-2.8,1.3-2.8,2.8v1c0-1.6,1.2-2.8,2.8-2.8h15.4c4.2,0,5.6,6,9.8,6h25.2
				c1.6,0,2.8,1.2,2.8,2.8v-1c0-1.5-1.3-2.8-2.8-2.8h-25.2c-4.2,0-5.6-6-9.8-6H399.4z"/>
			<path class="st2" d="M422.6,275v8h-4l6,8l6-8h-4v-8H422.6z M416.6,291v4h16v-4H416.6z"/>
		</g>
		<g>
			<path class="st0" d="M333.2,268h50.4c1.5,0,2.8,1.3,2.8,2.8v30.4c0,1.5-1.3,2.8-2.8,2.8h-50.4c-1.5,0-2.8-1.3-2.8-2.8v-30.4
				C330.4,269.3,331.7,268,333.2,268z"/>
			<path class="st13" d="M330.4,292.2c0,1.6,1.2,2.8,2.8,2.8h50.4c1.5,0,2.8-1.3,2.8-2.8v-30.4c0-1.5-1.3-2.8-2.8-2.8h-25.2
				c-4.2,0-5.6-6-9.8-6h-15.4c-1.6,0-2.8,1.2-2.8,2.8"/>
			<path class="st0" d="M333.2,266h50.4c1.5,0,2.8,1.3,2.8,2.8v30.4c0,1.5-1.3,2.8-2.8,2.8h-50.4c-1.5,0-2.8-1.3-2.8-2.8v-30.4
				C330.4,267.3,331.7,266,333.2,266z"/>
			<path class="st5" d="M337.2,262h42.4c1.5,0,2.8,1.3,2.8,2.8v16.4c0,1.5-1.3,2.8-2.8,2.8h-42.4c-1.5,0-2.8-1.3-2.8-2.8v-16.4
				C334.4,263.3,335.7,262,337.2,262z"/>
			<path class="st12" d="M333.2,267h50.4c1.5,0,2.8,1.3,2.8,2.8v30.4c0,1.5-1.3,2.8-2.8,2.8h-50.4c-1.5,0-2.8-1.3-2.8-2.8v-30.4
				C330.4,268.3,331.7,267,333.2,267z"/>
			<path class="st3" d="M333.2,253c-1.5,0-2.8,1.3-2.8,2.8v1c0-1.6,1.2-2.8,2.8-2.8h15.4c4.2,0,5.6,6,9.8,6h25.2
				c1.6,0,2.8,1.2,2.8,2.8v-1c0-1.5-1.3-2.8-2.8-2.8h-25.2c-4.2,0-5.6-6-9.8-6H333.2z"/>
			<path class="st2" d="M355.4,286.3c-0.6-0.4-1.3-0.5-2-0.5c-2.5,0-4.5,2.3-3.9,4.9c0.3,1.4,1.5,2.6,2.9,2.9
				c2.6,0.6,4.9-1.4,4.9-3.9V280h8v6.5c-0.6-0.4-1.3-0.5-2-0.5c-2.5,0-4.5,2.3-3.9,4.9c0.3,1.4,1.5,2.6,2.9,2.9
				c2.6,0.6,4.9-1.4,4.9-3.9v-14h-12"/>
		</g>
		<g>
			<path class="st0" d="M201,268h50.4c1.5,0,2.8,1.3,2.8,2.8v30.4c0,1.5-1.3,2.8-2.8,2.8H201c-1.5,0-2.8-1.3-2.8-2.8v-30.4
				C198.2,269.3,199.5,268,201,268z"/>
			<path class="st13" d="M198,292.2c0,1.6,1.2,2.8,2.8,2.8h50.6c1.5,0,2.8-1.3,2.8-2.8v-30.4c0-1.5-1.3-2.8-2.8-2.8h-25.2
				c-4.2,0-5.6-6-9.8-6h-15.6c-1.6,0-2.8,1.2-2.8,2.8"/>
			<path class="st0" d="M201,266h50.4c1.5,0,2.8,1.3,2.8,2.8v30.4c0,1.5-1.3,2.8-2.8,2.8H201c-1.5,0-2.8-1.3-2.8-2.8v-30.4
				C198.2,267.3,199.5,266,201,266z"/>
			<path class="st5" d="M205,262h42.4c1.5,0,2.8,1.3,2.8,2.8v16.4c0,1.5-1.3,2.8-2.8,2.8H205c-1.5,0-2.8-1.3-2.8-2.8v-16.4
				C202.2,263.3,203.5,262,205,262z"/>
			<path class="st12" d="M201,267h50.4c1.5,0,2.8,1.3,2.8,2.8v30.4c0,1.5-1.3,2.8-2.8,2.8H201c-1.5,0-2.8-1.3-2.8-2.8v-30.4
				C198.2,268.3,199.5,267,201,267z"/>
			<path class="st3" d="M201,253c-1.5,0-2.8,1.3-2.8,2.8v1c0-1.6,1.2-2.8,2.8-2.8h15.4c4.2,0,5.6,6,9.8,6h25.2
				c1.6,0,2.8,1.2,2.8,2.8v-1c0-1.5-1.3-2.8-2.8-2.8h-25.2c-4.2,0-5.6-6-9.8-6H201z"/>
			<path class="st2" d="M216.2,278.4v13.2c0,0.8,0.6,1.4,1.4,1.4h17.2c0.8,0,1.4-0.6,1.4-1.4v-13.2c0-0.8-0.6-1.4-1.4-1.4h-17.2
				C216.8,277,216.2,277.6,216.2,278.4z M222.2,283l6,6l3-4l3,4v2h-16v-4L222.2,283z"/>
		</g>
		<g>
			<path class="st0" d="M68.8,268h50.4c1.5,0,2.8,1.3,2.8,2.8v30.4c0,1.5-1.3,2.8-2.8,2.8H68.8c-1.5,0-2.8-1.3-2.8-2.8v-30.4
				C66,269.3,67.3,268,68.8,268z"/>
			<path class="st13" d="M66,292.2c0,1.6,1.2,2.8,2.8,2.8h50.4c1.5,0,2.8-1.3,2.8-2.8v-30.4c0-1.5-1.3-2.8-2.8-2.8H94
				c-4.2,0-5.6-6-9.8-6H68.8c-1.6,0-2.8,1.2-2.8,2.8"/>
			<path class="st0" d="M68.8,266h50.4c1.5,0,2.8,1.3,2.8,2.8v30.4c0,1.5-1.3,2.8-2.8,2.8H68.8c-1.5,0-2.8-1.3-2.8-2.8v-30.4
				C66,267.3,67.3,266,68.8,266z"/>
			<path class="st5" d="M72.8,262h42.4c1.5,0,2.8,1.3,2.8,2.8v16.4c0,1.5-1.3,2.8-2.8,2.8H72.8c-1.5,0-2.8-1.3-2.8-2.8v-16.4
				C70,263.3,71.3,262,72.8,262z"/>
			<path class="st12" d="M68.8,267h50.4c1.5,0,2.8,1.3,2.8,2.8v30.4c0,1.5-1.3,2.8-2.8,2.8H68.8c-1.5,0-2.8-1.3-2.8-2.8v-30.4
				C66,268.3,67.3,267,68.8,267z"/>
			<path class="st3" d="M68.8,253c-1.5,0-2.8,1.3-2.8,2.8v1c0-1.6,1.2-2.8,2.8-2.8h15.4c4.2,0,5.6,6,9.8,6h25.2
				c1.6,0,2.8,1.2,2.8,2.8v-1c0-1.5-1.3-2.8-2.8-2.8H94c-4.2,0-5.6-6-9.8-6H68.8z"/>
		</g>
		<g>
			<path class="st0" d="M267.2,268h50.4c1.5,0,2.8,1.3,2.8,2.8v30.4c0,1.5-1.3,2.8-2.8,2.8h-50.4c-1.5,0-2.8-1.3-2.8-2.8v-30.4
				C264.4,269.3,265.7,268,267.2,268z"/>
			<path class="st13" d="M264.2,292.2c0,1.6,1.2,2.8,2.8,2.8h50.6c1.5,0,2.8-1.3,2.8-2.8v-30.4c0-1.5-1.3-2.8-2.8-2.8h-25.2
				c-4.2,0-5.6-6-9.8-6H267c-1.6,0-2.8,1.2-2.8,2.8"/>
			<path class="st0" d="M267.2,266h50.4c1.5,0,2.8,1.3,2.8,2.8v30.4c0,1.5-1.3,2.8-2.8,2.8h-50.4c-1.5,0-2.8-1.3-2.8-2.8v-30.4
				C264.4,267.3,265.7,266,267.2,266z"/>
			<path class="st5" d="M271.2,262h42.4c1.5,0,2.8,1.3,2.8,2.8v16.4c0,1.5-1.3,2.8-2.8,2.8h-42.4c-1.5,0-2.8-1.3-2.8-2.8v-16.4
				C268.4,263.3,269.7,262,271.2,262z"/>
			<path class="st12" d="M267.2,267h50.4c1.5,0,2.8,1.3,2.8,2.8v30.4c0,1.5-1.3,2.8-2.8,2.8h-50.4c-1.5,0-2.8-1.3-2.8-2.8v-30.4
				C264.4,268.3,265.7,267,267.2,267z"/>
			<path class="st3" d="M267.2,253c-1.5,0-2.8,1.3-2.8,2.8v1c0-1.6,1.2-2.8,2.8-2.8h15.4c4.2,0,5.6,6,9.8,6h25.2
				c1.6,0,2.8,1.2,2.8,2.8v-1c0-1.5-1.3-2.8-2.8-2.8h-25.2c-4.2,0-5.6-6-9.8-6H267.2z"/>
			<path class="st2" d="M281.4,278.5v13c0,0.8,0.7,1.5,1.5,1.5h15c0.8,0,1.5-0.7,1.5-1.5V285v-6.5c0-0.8-0.7-1.5-1.5-1.5h-15
				C282.1,277,281.4,277.7,281.4,278.5z M299.4,285l6,6v-12L299.4,285z"/>
		</g>
	</g>
	<g>
		<g>
			<path class="st0" d="M3.8,1h50.4C55.8,1,57,2.3,57,3.8v46.4c0,1.5-1.3,2.8-2.8,2.8H3.8C2.3,53,1,51.7,1,50.2V3.8
				C1,2.3,2.3,1,3.8,1z"/>
			<path class="st14" d="M1,7v42.2C1,50.7,2.3,52,3.8,52h50.4c1.5,0,2.8-1.3,2.8-2.8V7l-1-1H2L1,7z"/>
			<path class="st2" d="M1,2.8V7h56V2.8C57,1.3,55.8,0,54.2,0H3.8C2.3,0,1,1.3,1,2.8z"/>
			<path class="st2" d="M15,47.8V52h26v-4.2c0-1.5-1.3-2.8-2.8-2.8H17.8C16.3,45,15,46.3,15,47.8z"/>
			<path class="st3" d="M1,2.8v1C1,2.2,2.3,1,3.8,1h50.4C55.8,1,57,2.2,57,3.8v-1C57,1.3,55.8,0,54.2,0H3.8C2.3,0,1,1.3,1,2.8z"/>
		</g>
		<g>
			<path class="st0" d="M136.2,16h50.4c1.5,0,2.8,1.3,2.8,2.8v30.4c0,1.5-1.3,2.8-2.8,2.8h-50.4c-1.5,0-2.8-1.3-2.8-2.8V18.8
				C133.4,17.3,134.7,16,136.2,16z"/>
			<path class="st15" d="M133.2,40.2c0,1.6,1.2,2.8,2.8,2.8h50.6c1.5,0,2.8-1.3,2.8-2.8V9.8c0-1.5-1.3-2.8-2.8-2.8h-25.2
				c-4.2,0-5.6-6-9.8-6H136c-1.6,0-2.8,1.2-2.8,2.8"/>
			<path class="st0" d="M136.2,14h50.4c1.5,0,2.8,1.3,2.8,2.8v30.4c0,1.5-1.3,2.8-2.8,2.8h-50.4c-1.5,0-2.8-1.3-2.8-2.8V16.8
				C133.4,15.3,134.7,14,136.2,14z"/>
			<path class="st5" d="M140.2,10h42.4c1.5,0,2.8,1.3,2.8,2.8v16.4c0,1.5-1.3,2.8-2.8,2.8h-42.4c-1.5,0-2.8-1.3-2.8-2.8V12.8
				C137.4,11.3,138.7,10,140.2,10z"/>
			<path class="st14" d="M136.2,15h50.4c1.5,0,2.8,1.3,2.8,2.8v30.4c0,1.5-1.3,2.8-2.8,2.8h-50.4c-1.5,0-2.8-1.3-2.8-2.8V17.8
				C133.4,16.3,134.7,15,136.2,15z"/>
			<path class="st3" d="M136.2,1c-1.5,0-2.8,1.3-2.8,2.8v1c0-1.6,1.2-2.8,2.8-2.8h15.4c4.2,0,5.6,6,9.8,6h25.2
				c1.6,0,2.8,1.2,2.8,2.8v-1c0-1.5-1.3-2.8-2.8-2.8h-25.2c-4.2,0-5.6-6-9.8-6H136.2z"/>
			<path class="st2" d="M153.4,24.5v17c0,0.8,0.7,1.5,1.5,1.5h13c0.8,0,1.5-0.7,1.5-1.5V28l-5-5h-9.5
				C154.1,23,153.4,23.7,153.4,24.5z"/>
		</g>
		<g>
			<path class="st0" d="M400.4,16h50.4c1.5,0,2.8,1.3,2.8,2.8v30.4c0,1.5-1.3,2.8-2.8,2.8h-50.4c-1.5,0-2.8-1.3-2.8-2.8V18.8
				C397.6,17.3,398.9,16,400.4,16z"/>
			<path class="st15" d="M397.6,40.2c0,1.6,1.2,2.8,2.8,2.8h50.4c1.5,0,2.8-1.3,2.8-2.8V9.8c0-1.5-1.3-2.8-2.8-2.8h-25.2
				c-4.2,0-5.6-6-9.8-6h-15.4c-1.6,0-2.8,1.2-2.8,2.8"/>
			<path class="st0" d="M400.4,14h50.4c1.5,0,2.8,1.3,2.8,2.8v30.4c0,1.5-1.3,2.8-2.8,2.8h-50.4c-1.5,0-2.8-1.3-2.8-2.8V16.8
				C397.6,15.3,398.9,14,400.4,14z"/>
			<path class="st5" d="M404.4,10h42.4c1.5,0,2.8,1.3,2.8,2.8v16.4c0,1.5-1.3,2.8-2.8,2.8h-42.4c-1.5,0-2.8-1.3-2.8-2.8V12.8
				C401.6,11.3,402.9,10,404.4,10z"/>
			<path class="st14" d="M400.4,15h50.4c1.5,0,2.8,1.3,2.8,2.8v30.4c0,1.5-1.3,2.8-2.8,2.8h-50.4c-1.5,0-2.8-1.3-2.8-2.8V17.8
				C397.6,16.3,398.9,15,400.4,15z"/>
			<path class="st3" d="M400.4,1c-1.5,0-2.8,1.3-2.8,2.8v1c0-1.6,1.2-2.8,2.8-2.8h15.4c4.2,0,5.6,6,9.8,6h25.2
				c1.6,0,2.8,1.2,2.8,2.8v-1c0-1.5-1.3-2.8-2.8-2.8h-25.2c-4.2,0-5.6-6-9.8-6H400.4z"/>
			<path class="st2" d="M423.6,23v8h-4l6,8l6-8h-4v-8H423.6z M417.6,39v4h16v-4H417.6z"/>
		</g>
		<g>
			<path class="st0" d="M334.4,16h50.4c1.5,0,2.8,1.3,2.8,2.8v30.4c0,1.5-1.3,2.8-2.8,2.8h-50.4c-1.5,0-2.8-1.3-2.8-2.8V18.8
				C331.6,17.3,332.9,16,334.4,16z"/>
			<path class="st15" d="M331.4,40.2c0,1.6,1.2,2.8,2.8,2.8h50.6c1.5,0,2.8-1.3,2.8-2.8V9.8c0-1.5-1.3-2.8-2.8-2.8h-25.2
				c-4.2,0-5.6-6-9.8-6h-15.6c-1.6,0-2.8,1.2-2.8,2.8"/>
			<path class="st0" d="M334.4,14h50.4c1.5,0,2.8,1.3,2.8,2.8v30.4c0,1.5-1.3,2.8-2.8,2.8h-50.4c-1.5,0-2.8-1.3-2.8-2.8V16.8
				C331.6,15.3,332.9,14,334.4,14z"/>
			<path class="st5" d="M338.4,10h42.4c1.5,0,2.8,1.3,2.8,2.8v16.4c0,1.5-1.3,2.8-2.8,2.8h-42.4c-1.5,0-2.8-1.3-2.8-2.8V12.8
				C335.6,11.3,336.9,10,338.4,10z"/>
			<path class="st14" d="M334.4,15h50.4c1.5,0,2.8,1.3,2.8,2.8v30.4c0,1.5-1.3,2.8-2.8,2.8h-50.4c-1.5,0-2.8-1.3-2.8-2.8V17.8
				C331.6,16.3,332.9,15,334.4,15z"/>
			<path class="st3" d="M334.4,1c-1.5,0-2.8,1.3-2.8,2.8v1c0-1.6,1.2-2.8,2.8-2.8h15.4c4.2,0,5.6,6,9.8,6h25.2
				c1.6,0,2.8,1.2,2.8,2.8v-1c0-1.5-1.3-2.8-2.8-2.8h-25.2c-4.2,0-5.6-6-9.8-6H334.4z"/>
			<path class="st2" d="M356.6,34.5c-0.6-0.4-1.3-0.5-2-0.5c-2.5,0-4.5,2.3-3.9,4.9c0.3,1.4,1.5,2.6,2.9,2.9
				c2.6,0.6,4.9-1.4,4.9-3.9V28h8v6.5c-0.6-0.4-1.3-0.5-2-0.5c-2.5,0-4.5,2.3-3.9,4.9c0.3,1.4,1.5,2.6,2.9,2.9
				c2.6,0.6,4.9-1.4,4.9-3.9V24h-12"/>
		</g>
		<g>
			<path class="st0" d="M202.2,16h50.4c1.5,0,2.8,1.3,2.8,2.8v30.4c0,1.5-1.3,2.8-2.8,2.8h-50.4c-1.5,0-2.8-1.3-2.8-2.8V18.8
				C199.4,17.3,200.7,16,202.2,16z"/>
			<path class="st15" d="M199.4,40.2c0,1.6,1.2,2.8,2.8,2.8h50.4c1.5,0,2.8-1.3,2.8-2.8V9.8c0-1.5-1.3-2.8-2.8-2.8h-25.2
				c-4.2,0-5.6-6-9.8-6h-15.4c-1.6,0-2.8,1.2-2.8,2.8"/>
			<path class="st0" d="M202.2,14h50.4c1.5,0,2.8,1.3,2.8,2.8v30.4c0,1.5-1.3,2.8-2.8,2.8h-50.4c-1.5,0-2.8-1.3-2.8-2.8V16.8
				C199.4,15.3,200.7,14,202.2,14z"/>
			<path class="st5" d="M206.2,10h42.4c1.5,0,2.8,1.3,2.8,2.8v16.4c0,1.5-1.3,2.8-2.8,2.8h-42.4c-1.5,0-2.8-1.3-2.8-2.8V12.8
				C203.4,11.3,204.7,10,206.2,10z"/>
			<path class="st14" d="M202.2,15h50.4c1.5,0,2.8,1.3,2.8,2.8v30.4c0,1.5-1.3,2.8-2.8,2.8h-50.4c-1.5,0-2.8-1.3-2.8-2.8V17.8
				C199.4,16.3,200.7,15,202.2,15z"/>
			<path class="st3" d="M202.2,1c-1.5,0-2.8,1.3-2.8,2.8v1c0-1.6,1.2-2.8,2.8-2.8h15.4c4.2,0,5.6,6,9.8,6h25.2
				c1.6,0,2.8,1.2,2.8,2.8v-1c0-1.5-1.3-2.8-2.8-2.8h-25.2c-4.2,0-5.6-6-9.8-6H202.2z"/>
			<path class="st2" d="M217.4,26.4v13.2c0,0.8,0.6,1.4,1.4,1.4H236c0.8,0,1.4-0.6,1.4-1.4V26.4c0-0.8-0.6-1.4-1.4-1.4h-17.2
				C218.1,25,217.4,25.6,217.4,26.4z M223.4,31l6,6l3-4l3,4v2h-16v-4L223.4,31z"/>
		</g>
		<g>
			<path class="st0" d="M70,16h50.4c1.5,0,2.8,1.3,2.8,2.8v30.4c0,1.5-1.3,2.8-2.8,2.8H70c-1.5,0-2.8-1.3-2.8-2.8V18.8
				C67.2,17.3,68.5,16,70,16z"/>
			<path class="st15" d="M67,40.2c0,1.6,1.2,2.8,2.8,2.8h50.6c1.5,0,2.8-1.3,2.8-2.8V9.8c0-1.5-1.3-2.8-2.8-2.8H95.2
				c-4.2,0-5.6-6-9.8-6H69.8C68.3,1,67,2.2,67,3.8"/>
			<path class="st0" d="M70,14h50.4c1.5,0,2.8,1.3,2.8,2.8v30.4c0,1.5-1.3,2.8-2.8,2.8H70c-1.5,0-2.8-1.3-2.8-2.8V16.8
				C67.2,15.3,68.5,14,70,14z"/>
			<path class="st5" d="M74,10h42.4c1.5,0,2.8,1.3,2.8,2.8v16.4c0,1.5-1.3,2.8-2.8,2.8H74c-1.5,0-2.8-1.3-2.8-2.8V12.8
				C71.2,11.3,72.5,10,74,10z"/>
			<path class="st14" d="M70,15h50.4c1.5,0,2.8,1.3,2.8,2.8v30.4c0,1.5-1.3,2.8-2.8,2.8H70c-1.5,0-2.8-1.3-2.8-2.8V17.8
				C67.2,16.3,68.5,15,70,15z"/>
			<path class="st3" d="M70,1c-1.5,0-2.8,1.3-2.8,2.8v1C67.2,3.2,68.5,2,70,2h15.4c4.2,0,5.6,6,9.8,6h25.2c1.6,0,2.8,1.2,2.8,2.8v-1
				c0-1.5-1.3-2.8-2.8-2.8H95.2c-4.2,0-5.6-6-9.8-6H70z"/>
		</g>
		<g>
			<path class="st0" d="M268.2,16h50.4c1.5,0,2.8,1.3,2.8,2.8v30.4c0,1.5-1.3,2.8-2.8,2.8h-50.4c-1.5,0-2.8-1.3-2.8-2.8V18.8
				C265.4,17.3,266.7,16,268.2,16z"/>
			<path class="st15" d="M265.4,40.2c0,1.6,1.2,2.8,2.8,2.8h50.4c1.5,0,2.8-1.3,2.8-2.8V9.8c0-1.5-1.3-2.8-2.8-2.8h-25.2
				c-4.2,0-5.6-6-9.8-6h-15.4c-1.6,0-2.8,1.2-2.8,2.8"/>
			<path class="st0" d="M268.2,14h50.4c1.5,0,2.8,1.3,2.8,2.8v30.4c0,1.5-1.3,2.8-2.8,2.8h-50.4c-1.5,0-2.8-1.3-2.8-2.8V16.8
				C265.4,15.3,266.7,14,268.2,14z"/>
			<path class="st5" d="M272.2,10h42.4c1.5,0,2.8,1.3,2.8,2.8v16.4c0,1.5-1.3,2.8-2.8,2.8h-42.4c-1.5,0-2.8-1.3-2.8-2.8V12.8
				C269.4,11.3,270.7,10,272.2,10z"/>
			<path class="st14" d="M268.2,15h50.4c1.5,0,2.8,1.3,2.8,2.8v30.4c0,1.5-1.3,2.8-2.8,2.8h-50.4c-1.5,0-2.8-1.3-2.8-2.8V17.8
				C265.4,16.3,266.7,15,268.2,15z"/>
			<path class="st3" d="M268.2,1c-1.5,0-2.8,1.3-2.8,2.8v1c0-1.6,1.2-2.8,2.8-2.8h15.4c4.2,0,5.6,6,9.8,6h25.2
				c1.6,0,2.8,1.2,2.8,2.8v-1c0-1.5-1.3-2.8-2.8-2.8h-25.2c-4.2,0-5.6-6-9.8-6H268.2z"/>
			<path class="st2" d="M282.4,26.5v13c0,0.8,0.7,1.5,1.5,1.5h15c0.8,0,1.5-0.7,1.5-1.5V33v-6.5c0-0.8-0.7-1.5-1.5-1.5h-15
				C283.1,25,282.4,25.7,282.4,26.5z M300.4,32.8l6,6v-12L300.4,32.8z"/>
		</g>
	</g>
</g>
</svg>
